%TF.GenerationSoftware,KiCad,Pcbnew,(6.0.2-0)*%
%TF.CreationDate,2022-02-22T22:16:16+08:00*%
%TF.ProjectId,TPA3125D2,54504133-3132-4354-9432-2e6b69636164,rev?*%
%TF.SameCoordinates,Original*%
%TF.FileFunction,Legend,Bot*%
%TF.FilePolarity,Positive*%
%FSLAX46Y46*%
G04 Gerber Fmt 4.6, Leading zero omitted, Abs format (unit mm)*
G04 Created by KiCad (PCBNEW (6.0.2-0)) date 2022-02-22 22:16:16*
%MOMM*%
%LPD*%
G01*
G04 APERTURE LIST*
%ADD10C,0.150000*%
%ADD11C,0.120000*%
G04 APERTURE END LIST*
D10*
%TO.C,C12*%
X136642857Y-97407142D02*
X136690476Y-97454761D01*
X136833333Y-97502380D01*
X136928571Y-97502380D01*
X137071428Y-97454761D01*
X137166666Y-97359523D01*
X137214285Y-97264285D01*
X137261904Y-97073809D01*
X137261904Y-96930952D01*
X137214285Y-96740476D01*
X137166666Y-96645238D01*
X137071428Y-96550000D01*
X136928571Y-96502380D01*
X136833333Y-96502380D01*
X136690476Y-96550000D01*
X136642857Y-96597619D01*
X135690476Y-97502380D02*
X136261904Y-97502380D01*
X135976190Y-97502380D02*
X135976190Y-96502380D01*
X136071428Y-96645238D01*
X136166666Y-96740476D01*
X136261904Y-96788095D01*
X135309523Y-96597619D02*
X135261904Y-96550000D01*
X135166666Y-96502380D01*
X134928571Y-96502380D01*
X134833333Y-96550000D01*
X134785714Y-96597619D01*
X134738095Y-96692857D01*
X134738095Y-96788095D01*
X134785714Y-96930952D01*
X135357142Y-97502380D01*
X134738095Y-97502380D01*
%TO.C,C21*%
X149427142Y-67357142D02*
X149474761Y-67309523D01*
X149522380Y-67166666D01*
X149522380Y-67071428D01*
X149474761Y-66928571D01*
X149379523Y-66833333D01*
X149284285Y-66785714D01*
X149093809Y-66738095D01*
X148950952Y-66738095D01*
X148760476Y-66785714D01*
X148665238Y-66833333D01*
X148570000Y-66928571D01*
X148522380Y-67071428D01*
X148522380Y-67166666D01*
X148570000Y-67309523D01*
X148617619Y-67357142D01*
X148617619Y-67738095D02*
X148570000Y-67785714D01*
X148522380Y-67880952D01*
X148522380Y-68119047D01*
X148570000Y-68214285D01*
X148617619Y-68261904D01*
X148712857Y-68309523D01*
X148808095Y-68309523D01*
X148950952Y-68261904D01*
X149522380Y-67690476D01*
X149522380Y-68309523D01*
X149522380Y-69261904D02*
X149522380Y-68690476D01*
X149522380Y-68976190D02*
X148522380Y-68976190D01*
X148665238Y-68880952D01*
X148760476Y-68785714D01*
X148808095Y-68690476D01*
%TO.C,C17*%
X152787142Y-85107142D02*
X152834761Y-85059523D01*
X152882380Y-84916666D01*
X152882380Y-84821428D01*
X152834761Y-84678571D01*
X152739523Y-84583333D01*
X152644285Y-84535714D01*
X152453809Y-84488095D01*
X152310952Y-84488095D01*
X152120476Y-84535714D01*
X152025238Y-84583333D01*
X151930000Y-84678571D01*
X151882380Y-84821428D01*
X151882380Y-84916666D01*
X151930000Y-85059523D01*
X151977619Y-85107142D01*
X152882380Y-86059523D02*
X152882380Y-85488095D01*
X152882380Y-85773809D02*
X151882380Y-85773809D01*
X152025238Y-85678571D01*
X152120476Y-85583333D01*
X152168095Y-85488095D01*
X151882380Y-86392857D02*
X151882380Y-87059523D01*
X152882380Y-86630952D01*
%TO.C,C26*%
X165921357Y-94369142D02*
X165968976Y-94416761D01*
X166111833Y-94464380D01*
X166207071Y-94464380D01*
X166349928Y-94416761D01*
X166445166Y-94321523D01*
X166492785Y-94226285D01*
X166540404Y-94035809D01*
X166540404Y-93892952D01*
X166492785Y-93702476D01*
X166445166Y-93607238D01*
X166349928Y-93512000D01*
X166207071Y-93464380D01*
X166111833Y-93464380D01*
X165968976Y-93512000D01*
X165921357Y-93559619D01*
X165540404Y-93559619D02*
X165492785Y-93512000D01*
X165397547Y-93464380D01*
X165159452Y-93464380D01*
X165064214Y-93512000D01*
X165016595Y-93559619D01*
X164968976Y-93654857D01*
X164968976Y-93750095D01*
X165016595Y-93892952D01*
X165588023Y-94464380D01*
X164968976Y-94464380D01*
X164111833Y-93464380D02*
X164302309Y-93464380D01*
X164397547Y-93512000D01*
X164445166Y-93559619D01*
X164540404Y-93702476D01*
X164588023Y-93892952D01*
X164588023Y-94273904D01*
X164540404Y-94369142D01*
X164492785Y-94416761D01*
X164397547Y-94464380D01*
X164207071Y-94464380D01*
X164111833Y-94416761D01*
X164064214Y-94369142D01*
X164016595Y-94273904D01*
X164016595Y-94035809D01*
X164064214Y-93940571D01*
X164111833Y-93892952D01*
X164207071Y-93845333D01*
X164397547Y-93845333D01*
X164492785Y-93892952D01*
X164540404Y-93940571D01*
X164588023Y-94035809D01*
%TO.C,C31*%
X160142857Y-97407142D02*
X160190476Y-97454761D01*
X160333333Y-97502380D01*
X160428571Y-97502380D01*
X160571428Y-97454761D01*
X160666666Y-97359523D01*
X160714285Y-97264285D01*
X160761904Y-97073809D01*
X160761904Y-96930952D01*
X160714285Y-96740476D01*
X160666666Y-96645238D01*
X160571428Y-96550000D01*
X160428571Y-96502380D01*
X160333333Y-96502380D01*
X160190476Y-96550000D01*
X160142857Y-96597619D01*
X159809523Y-96502380D02*
X159190476Y-96502380D01*
X159523809Y-96883333D01*
X159380952Y-96883333D01*
X159285714Y-96930952D01*
X159238095Y-96978571D01*
X159190476Y-97073809D01*
X159190476Y-97311904D01*
X159238095Y-97407142D01*
X159285714Y-97454761D01*
X159380952Y-97502380D01*
X159666666Y-97502380D01*
X159761904Y-97454761D01*
X159809523Y-97407142D01*
X158238095Y-97502380D02*
X158809523Y-97502380D01*
X158523809Y-97502380D02*
X158523809Y-96502380D01*
X158619047Y-96645238D01*
X158714285Y-96740476D01*
X158809523Y-96788095D01*
%TO.C,R8*%
X164156380Y-64857333D02*
X163680190Y-64524000D01*
X164156380Y-64285904D02*
X163156380Y-64285904D01*
X163156380Y-64666857D01*
X163204000Y-64762095D01*
X163251619Y-64809714D01*
X163346857Y-64857333D01*
X163489714Y-64857333D01*
X163584952Y-64809714D01*
X163632571Y-64762095D01*
X163680190Y-64666857D01*
X163680190Y-64285904D01*
X163584952Y-65428761D02*
X163537333Y-65333523D01*
X163489714Y-65285904D01*
X163394476Y-65238285D01*
X163346857Y-65238285D01*
X163251619Y-65285904D01*
X163204000Y-65333523D01*
X163156380Y-65428761D01*
X163156380Y-65619238D01*
X163204000Y-65714476D01*
X163251619Y-65762095D01*
X163346857Y-65809714D01*
X163394476Y-65809714D01*
X163489714Y-65762095D01*
X163537333Y-65714476D01*
X163584952Y-65619238D01*
X163584952Y-65428761D01*
X163632571Y-65333523D01*
X163680190Y-65285904D01*
X163775428Y-65238285D01*
X163965904Y-65238285D01*
X164061142Y-65285904D01*
X164108761Y-65333523D01*
X164156380Y-65428761D01*
X164156380Y-65619238D01*
X164108761Y-65714476D01*
X164061142Y-65762095D01*
X163965904Y-65809714D01*
X163775428Y-65809714D01*
X163680190Y-65762095D01*
X163632571Y-65714476D01*
X163584952Y-65619238D01*
%TO.C,R9*%
X152582666Y-95468380D02*
X152916000Y-94992190D01*
X153154095Y-95468380D02*
X153154095Y-94468380D01*
X152773142Y-94468380D01*
X152677904Y-94516000D01*
X152630285Y-94563619D01*
X152582666Y-94658857D01*
X152582666Y-94801714D01*
X152630285Y-94896952D01*
X152677904Y-94944571D01*
X152773142Y-94992190D01*
X153154095Y-94992190D01*
X152106476Y-95468380D02*
X151916000Y-95468380D01*
X151820761Y-95420761D01*
X151773142Y-95373142D01*
X151677904Y-95230285D01*
X151630285Y-95039809D01*
X151630285Y-94658857D01*
X151677904Y-94563619D01*
X151725523Y-94516000D01*
X151820761Y-94468380D01*
X152011238Y-94468380D01*
X152106476Y-94516000D01*
X152154095Y-94563619D01*
X152201714Y-94658857D01*
X152201714Y-94896952D01*
X152154095Y-94992190D01*
X152106476Y-95039809D01*
X152011238Y-95087428D01*
X151820761Y-95087428D01*
X151725523Y-95039809D01*
X151677904Y-94992190D01*
X151630285Y-94896952D01*
%TO.C,C11*%
X136892857Y-61057142D02*
X136940476Y-61104761D01*
X137083333Y-61152380D01*
X137178571Y-61152380D01*
X137321428Y-61104761D01*
X137416666Y-61009523D01*
X137464285Y-60914285D01*
X137511904Y-60723809D01*
X137511904Y-60580952D01*
X137464285Y-60390476D01*
X137416666Y-60295238D01*
X137321428Y-60200000D01*
X137178571Y-60152380D01*
X137083333Y-60152380D01*
X136940476Y-60200000D01*
X136892857Y-60247619D01*
X135940476Y-61152380D02*
X136511904Y-61152380D01*
X136226190Y-61152380D02*
X136226190Y-60152380D01*
X136321428Y-60295238D01*
X136416666Y-60390476D01*
X136511904Y-60438095D01*
X134988095Y-61152380D02*
X135559523Y-61152380D01*
X135273809Y-61152380D02*
X135273809Y-60152380D01*
X135369047Y-60295238D01*
X135464285Y-60390476D01*
X135559523Y-60438095D01*
%TO.C,C13*%
X143005357Y-60927142D02*
X143052976Y-60974761D01*
X143195833Y-61022380D01*
X143291071Y-61022380D01*
X143433928Y-60974761D01*
X143529166Y-60879523D01*
X143576785Y-60784285D01*
X143624404Y-60593809D01*
X143624404Y-60450952D01*
X143576785Y-60260476D01*
X143529166Y-60165238D01*
X143433928Y-60070000D01*
X143291071Y-60022380D01*
X143195833Y-60022380D01*
X143052976Y-60070000D01*
X143005357Y-60117619D01*
X142052976Y-61022380D02*
X142624404Y-61022380D01*
X142338690Y-61022380D02*
X142338690Y-60022380D01*
X142433928Y-60165238D01*
X142529166Y-60260476D01*
X142624404Y-60308095D01*
X141719642Y-60022380D02*
X141100595Y-60022380D01*
X141433928Y-60403333D01*
X141291071Y-60403333D01*
X141195833Y-60450952D01*
X141148214Y-60498571D01*
X141100595Y-60593809D01*
X141100595Y-60831904D01*
X141148214Y-60927142D01*
X141195833Y-60974761D01*
X141291071Y-61022380D01*
X141576785Y-61022380D01*
X141672023Y-60974761D01*
X141719642Y-60927142D01*
%TO.C,C1*%
X132416666Y-72677142D02*
X132464285Y-72724761D01*
X132607142Y-72772380D01*
X132702380Y-72772380D01*
X132845238Y-72724761D01*
X132940476Y-72629523D01*
X132988095Y-72534285D01*
X133035714Y-72343809D01*
X133035714Y-72200952D01*
X132988095Y-72010476D01*
X132940476Y-71915238D01*
X132845238Y-71820000D01*
X132702380Y-71772380D01*
X132607142Y-71772380D01*
X132464285Y-71820000D01*
X132416666Y-71867619D01*
X131464285Y-72772380D02*
X132035714Y-72772380D01*
X131750000Y-72772380D02*
X131750000Y-71772380D01*
X131845238Y-71915238D01*
X131940476Y-72010476D01*
X132035714Y-72058095D01*
%TO.C,C4*%
X126416666Y-78927142D02*
X126464285Y-78974761D01*
X126607142Y-79022380D01*
X126702380Y-79022380D01*
X126845238Y-78974761D01*
X126940476Y-78879523D01*
X126988095Y-78784285D01*
X127035714Y-78593809D01*
X127035714Y-78450952D01*
X126988095Y-78260476D01*
X126940476Y-78165238D01*
X126845238Y-78070000D01*
X126702380Y-78022380D01*
X126607142Y-78022380D01*
X126464285Y-78070000D01*
X126416666Y-78117619D01*
X125559523Y-78355714D02*
X125559523Y-79022380D01*
X125797619Y-77974761D02*
X126035714Y-78689047D01*
X125416666Y-78689047D01*
%TO.C,C5*%
X131177142Y-86083333D02*
X131224761Y-86035714D01*
X131272380Y-85892857D01*
X131272380Y-85797619D01*
X131224761Y-85654761D01*
X131129523Y-85559523D01*
X131034285Y-85511904D01*
X130843809Y-85464285D01*
X130700952Y-85464285D01*
X130510476Y-85511904D01*
X130415238Y-85559523D01*
X130320000Y-85654761D01*
X130272380Y-85797619D01*
X130272380Y-85892857D01*
X130320000Y-86035714D01*
X130367619Y-86083333D01*
X130272380Y-86988095D02*
X130272380Y-86511904D01*
X130748571Y-86464285D01*
X130700952Y-86511904D01*
X130653333Y-86607142D01*
X130653333Y-86845238D01*
X130700952Y-86940476D01*
X130748571Y-86988095D01*
X130843809Y-87035714D01*
X131081904Y-87035714D01*
X131177142Y-86988095D01*
X131224761Y-86940476D01*
X131272380Y-86845238D01*
X131272380Y-86607142D01*
X131224761Y-86511904D01*
X131177142Y-86464285D01*
%TO.C,C16*%
X143005357Y-92927142D02*
X143052976Y-92974761D01*
X143195833Y-93022380D01*
X143291071Y-93022380D01*
X143433928Y-92974761D01*
X143529166Y-92879523D01*
X143576785Y-92784285D01*
X143624404Y-92593809D01*
X143624404Y-92450952D01*
X143576785Y-92260476D01*
X143529166Y-92165238D01*
X143433928Y-92070000D01*
X143291071Y-92022380D01*
X143195833Y-92022380D01*
X143052976Y-92070000D01*
X143005357Y-92117619D01*
X142052976Y-93022380D02*
X142624404Y-93022380D01*
X142338690Y-93022380D02*
X142338690Y-92022380D01*
X142433928Y-92165238D01*
X142529166Y-92260476D01*
X142624404Y-92308095D01*
X141195833Y-92022380D02*
X141386309Y-92022380D01*
X141481547Y-92070000D01*
X141529166Y-92117619D01*
X141624404Y-92260476D01*
X141672023Y-92450952D01*
X141672023Y-92831904D01*
X141624404Y-92927142D01*
X141576785Y-92974761D01*
X141481547Y-93022380D01*
X141291071Y-93022380D01*
X141195833Y-92974761D01*
X141148214Y-92927142D01*
X141100595Y-92831904D01*
X141100595Y-92593809D01*
X141148214Y-92498571D01*
X141195833Y-92450952D01*
X141291071Y-92403333D01*
X141481547Y-92403333D01*
X141576785Y-92450952D01*
X141624404Y-92498571D01*
X141672023Y-92593809D01*
%TO.C,C19*%
X157892857Y-78537142D02*
X157940476Y-78584761D01*
X158083333Y-78632380D01*
X158178571Y-78632380D01*
X158321428Y-78584761D01*
X158416666Y-78489523D01*
X158464285Y-78394285D01*
X158511904Y-78203809D01*
X158511904Y-78060952D01*
X158464285Y-77870476D01*
X158416666Y-77775238D01*
X158321428Y-77680000D01*
X158178571Y-77632380D01*
X158083333Y-77632380D01*
X157940476Y-77680000D01*
X157892857Y-77727619D01*
X156940476Y-78632380D02*
X157511904Y-78632380D01*
X157226190Y-78632380D02*
X157226190Y-77632380D01*
X157321428Y-77775238D01*
X157416666Y-77870476D01*
X157511904Y-77918095D01*
X156464285Y-78632380D02*
X156273809Y-78632380D01*
X156178571Y-78584761D01*
X156130952Y-78537142D01*
X156035714Y-78394285D01*
X155988095Y-78203809D01*
X155988095Y-77822857D01*
X156035714Y-77727619D01*
X156083333Y-77680000D01*
X156178571Y-77632380D01*
X156369047Y-77632380D01*
X156464285Y-77680000D01*
X156511904Y-77727619D01*
X156559523Y-77822857D01*
X156559523Y-78060952D01*
X156511904Y-78156190D01*
X156464285Y-78203809D01*
X156369047Y-78251428D01*
X156178571Y-78251428D01*
X156083333Y-78203809D01*
X156035714Y-78156190D01*
X155988095Y-78060952D01*
%TO.C,C6*%
X126416666Y-91427142D02*
X126464285Y-91474761D01*
X126607142Y-91522380D01*
X126702380Y-91522380D01*
X126845238Y-91474761D01*
X126940476Y-91379523D01*
X126988095Y-91284285D01*
X127035714Y-91093809D01*
X127035714Y-90950952D01*
X126988095Y-90760476D01*
X126940476Y-90665238D01*
X126845238Y-90570000D01*
X126702380Y-90522380D01*
X126607142Y-90522380D01*
X126464285Y-90570000D01*
X126416666Y-90617619D01*
X125559523Y-90522380D02*
X125750000Y-90522380D01*
X125845238Y-90570000D01*
X125892857Y-90617619D01*
X125988095Y-90760476D01*
X126035714Y-90950952D01*
X126035714Y-91331904D01*
X125988095Y-91427142D01*
X125940476Y-91474761D01*
X125845238Y-91522380D01*
X125654761Y-91522380D01*
X125559523Y-91474761D01*
X125511904Y-91427142D01*
X125464285Y-91331904D01*
X125464285Y-91093809D01*
X125511904Y-90998571D01*
X125559523Y-90950952D01*
X125654761Y-90903333D01*
X125845238Y-90903333D01*
X125940476Y-90950952D01*
X125988095Y-90998571D01*
X126035714Y-91093809D01*
%TO.C,R3*%
X124802380Y-58833333D02*
X124326190Y-58500000D01*
X124802380Y-58261904D02*
X123802380Y-58261904D01*
X123802380Y-58642857D01*
X123850000Y-58738095D01*
X123897619Y-58785714D01*
X123992857Y-58833333D01*
X124135714Y-58833333D01*
X124230952Y-58785714D01*
X124278571Y-58738095D01*
X124326190Y-58642857D01*
X124326190Y-58261904D01*
X123802380Y-59166666D02*
X123802380Y-59785714D01*
X124183333Y-59452380D01*
X124183333Y-59595238D01*
X124230952Y-59690476D01*
X124278571Y-59738095D01*
X124373809Y-59785714D01*
X124611904Y-59785714D01*
X124707142Y-59738095D01*
X124754761Y-59690476D01*
X124802380Y-59595238D01*
X124802380Y-59309523D01*
X124754761Y-59214285D01*
X124707142Y-59166666D01*
%TO.C,R4*%
X128102380Y-67583333D02*
X127626190Y-67250000D01*
X128102380Y-67011904D02*
X127102380Y-67011904D01*
X127102380Y-67392857D01*
X127150000Y-67488095D01*
X127197619Y-67535714D01*
X127292857Y-67583333D01*
X127435714Y-67583333D01*
X127530952Y-67535714D01*
X127578571Y-67488095D01*
X127626190Y-67392857D01*
X127626190Y-67011904D01*
X127435714Y-68440476D02*
X128102380Y-68440476D01*
X127054761Y-68202380D02*
X127769047Y-67964285D01*
X127769047Y-68583333D01*
%TO.C,R5*%
X149552380Y-76583333D02*
X149076190Y-76250000D01*
X149552380Y-76011904D02*
X148552380Y-76011904D01*
X148552380Y-76392857D01*
X148600000Y-76488095D01*
X148647619Y-76535714D01*
X148742857Y-76583333D01*
X148885714Y-76583333D01*
X148980952Y-76535714D01*
X149028571Y-76488095D01*
X149076190Y-76392857D01*
X149076190Y-76011904D01*
X148552380Y-77488095D02*
X148552380Y-77011904D01*
X149028571Y-76964285D01*
X148980952Y-77011904D01*
X148933333Y-77107142D01*
X148933333Y-77345238D01*
X148980952Y-77440476D01*
X149028571Y-77488095D01*
X149123809Y-77535714D01*
X149361904Y-77535714D01*
X149457142Y-77488095D01*
X149504761Y-77440476D01*
X149552380Y-77345238D01*
X149552380Y-77107142D01*
X149504761Y-77011904D01*
X149457142Y-76964285D01*
%TO.C,R7*%
X157416666Y-83452380D02*
X157750000Y-82976190D01*
X157988095Y-83452380D02*
X157988095Y-82452380D01*
X157607142Y-82452380D01*
X157511904Y-82500000D01*
X157464285Y-82547619D01*
X157416666Y-82642857D01*
X157416666Y-82785714D01*
X157464285Y-82880952D01*
X157511904Y-82928571D01*
X157607142Y-82976190D01*
X157988095Y-82976190D01*
X157083333Y-82452380D02*
X156416666Y-82452380D01*
X156845238Y-83452380D01*
%TO.C,C23*%
X167462357Y-75065142D02*
X167509976Y-75112761D01*
X167652833Y-75160380D01*
X167748071Y-75160380D01*
X167890928Y-75112761D01*
X167986166Y-75017523D01*
X168033785Y-74922285D01*
X168081404Y-74731809D01*
X168081404Y-74588952D01*
X168033785Y-74398476D01*
X167986166Y-74303238D01*
X167890928Y-74208000D01*
X167748071Y-74160380D01*
X167652833Y-74160380D01*
X167509976Y-74208000D01*
X167462357Y-74255619D01*
X167081404Y-74255619D02*
X167033785Y-74208000D01*
X166938547Y-74160380D01*
X166700452Y-74160380D01*
X166605214Y-74208000D01*
X166557595Y-74255619D01*
X166509976Y-74350857D01*
X166509976Y-74446095D01*
X166557595Y-74588952D01*
X167129023Y-75160380D01*
X166509976Y-75160380D01*
X166176642Y-74160380D02*
X165557595Y-74160380D01*
X165890928Y-74541333D01*
X165748071Y-74541333D01*
X165652833Y-74588952D01*
X165605214Y-74636571D01*
X165557595Y-74731809D01*
X165557595Y-74969904D01*
X165605214Y-75065142D01*
X165652833Y-75112761D01*
X165748071Y-75160380D01*
X166033785Y-75160380D01*
X166129023Y-75112761D01*
X166176642Y-75065142D01*
%TO.C,C25*%
X167841142Y-64381142D02*
X167888761Y-64333523D01*
X167936380Y-64190666D01*
X167936380Y-64095428D01*
X167888761Y-63952571D01*
X167793523Y-63857333D01*
X167698285Y-63809714D01*
X167507809Y-63762095D01*
X167364952Y-63762095D01*
X167174476Y-63809714D01*
X167079238Y-63857333D01*
X166984000Y-63952571D01*
X166936380Y-64095428D01*
X166936380Y-64190666D01*
X166984000Y-64333523D01*
X167031619Y-64381142D01*
X167031619Y-64762095D02*
X166984000Y-64809714D01*
X166936380Y-64904952D01*
X166936380Y-65143047D01*
X166984000Y-65238285D01*
X167031619Y-65285904D01*
X167126857Y-65333523D01*
X167222095Y-65333523D01*
X167364952Y-65285904D01*
X167936380Y-64714476D01*
X167936380Y-65333523D01*
X166936380Y-66238285D02*
X166936380Y-65762095D01*
X167412571Y-65714476D01*
X167364952Y-65762095D01*
X167317333Y-65857333D01*
X167317333Y-66095428D01*
X167364952Y-66190666D01*
X167412571Y-66238285D01*
X167507809Y-66285904D01*
X167745904Y-66285904D01*
X167841142Y-66238285D01*
X167888761Y-66190666D01*
X167936380Y-66095428D01*
X167936380Y-65857333D01*
X167888761Y-65762095D01*
X167841142Y-65714476D01*
%TO.C,C30*%
X160142857Y-48657142D02*
X160190476Y-48704761D01*
X160333333Y-48752380D01*
X160428571Y-48752380D01*
X160571428Y-48704761D01*
X160666666Y-48609523D01*
X160714285Y-48514285D01*
X160761904Y-48323809D01*
X160761904Y-48180952D01*
X160714285Y-47990476D01*
X160666666Y-47895238D01*
X160571428Y-47800000D01*
X160428571Y-47752380D01*
X160333333Y-47752380D01*
X160190476Y-47800000D01*
X160142857Y-47847619D01*
X159809523Y-47752380D02*
X159190476Y-47752380D01*
X159523809Y-48133333D01*
X159380952Y-48133333D01*
X159285714Y-48180952D01*
X159238095Y-48228571D01*
X159190476Y-48323809D01*
X159190476Y-48561904D01*
X159238095Y-48657142D01*
X159285714Y-48704761D01*
X159380952Y-48752380D01*
X159666666Y-48752380D01*
X159761904Y-48704761D01*
X159809523Y-48657142D01*
X158571428Y-47752380D02*
X158476190Y-47752380D01*
X158380952Y-47800000D01*
X158333333Y-47847619D01*
X158285714Y-47942857D01*
X158238095Y-48133333D01*
X158238095Y-48371428D01*
X158285714Y-48561904D01*
X158333333Y-48657142D01*
X158380952Y-48704761D01*
X158476190Y-48752380D01*
X158571428Y-48752380D01*
X158666666Y-48704761D01*
X158714285Y-48657142D01*
X158761904Y-48561904D01*
X158809523Y-48371428D01*
X158809523Y-48133333D01*
X158761904Y-47942857D01*
X158714285Y-47847619D01*
X158666666Y-47800000D01*
X158571428Y-47752380D01*
D11*
%TO.C,C12*%
X141260000Y-99054437D02*
X141260000Y-102040000D01*
X130740000Y-97990000D02*
X130740000Y-102040000D01*
X142750000Y-100790000D02*
X141500000Y-100790000D01*
X141260000Y-107445563D02*
X141260000Y-104460000D01*
X142125000Y-100165000D02*
X142125000Y-101415000D01*
X140195563Y-97990000D02*
X130740000Y-97990000D01*
X141260000Y-99054437D02*
X140195563Y-97990000D01*
X130740000Y-108510000D02*
X130740000Y-104460000D01*
X141260000Y-107445563D02*
X140195563Y-108510000D01*
X140195563Y-108510000D02*
X130740000Y-108510000D01*
%TO.C,C21*%
X151485000Y-67738748D02*
X151485000Y-68261252D01*
X150015000Y-67738748D02*
X150015000Y-68261252D01*
%TO.C,C17*%
X150015000Y-86011252D02*
X150015000Y-85488748D01*
X151485000Y-86011252D02*
X151485000Y-85488748D01*
%TO.C,C26*%
X164817248Y-95277000D02*
X165339752Y-95277000D01*
X164817248Y-96747000D02*
X165339752Y-96747000D01*
%TO.C,C31*%
X154240000Y-97990000D02*
X154240000Y-102040000D01*
X166250000Y-100790000D02*
X165000000Y-100790000D01*
X163695563Y-97990000D02*
X154240000Y-97990000D01*
X164760000Y-107445563D02*
X163695563Y-108510000D01*
X154240000Y-108510000D02*
X154240000Y-104460000D01*
X165625000Y-100165000D02*
X165625000Y-101415000D01*
X164760000Y-99054437D02*
X164760000Y-102040000D01*
X164760000Y-107445563D02*
X164760000Y-104460000D01*
X163695563Y-108510000D02*
X154240000Y-108510000D01*
X164760000Y-99054437D02*
X163695563Y-97990000D01*
%TO.C,R8*%
X164619000Y-64796936D02*
X164619000Y-65251064D01*
X166089000Y-64796936D02*
X166089000Y-65251064D01*
%TO.C,R9*%
X152188936Y-97001000D02*
X152643064Y-97001000D01*
X152188936Y-95531000D02*
X152643064Y-95531000D01*
%TO.C,C11*%
X132054437Y-49240000D02*
X141510000Y-49240000D01*
X130125000Y-57585000D02*
X130125000Y-56335000D01*
X130990000Y-50304437D02*
X130990000Y-53290000D01*
X132054437Y-59760000D02*
X141510000Y-59760000D01*
X141510000Y-59760000D02*
X141510000Y-55710000D01*
X130990000Y-50304437D02*
X132054437Y-49240000D01*
X130990000Y-58695563D02*
X130990000Y-55710000D01*
X130990000Y-58695563D02*
X132054437Y-59760000D01*
X141510000Y-49240000D02*
X141510000Y-53290000D01*
X129500000Y-56960000D02*
X130750000Y-56960000D01*
%TO.C,C13*%
X142508767Y-62510000D02*
X142216233Y-62510000D01*
X142508767Y-61490000D02*
X142216233Y-61490000D01*
%TO.C,C1*%
X132396267Y-73240000D02*
X132103733Y-73240000D01*
X132396267Y-74260000D02*
X132103733Y-74260000D01*
%TO.C,C4*%
X126396267Y-80510000D02*
X126103733Y-80510000D01*
X126396267Y-79490000D02*
X126103733Y-79490000D01*
%TO.C,C5*%
X132760000Y-86103733D02*
X132760000Y-86396267D01*
X131740000Y-86103733D02*
X131740000Y-86396267D01*
%TO.C,C16*%
X142508767Y-94510000D02*
X142216233Y-94510000D01*
X142508767Y-93490000D02*
X142216233Y-93490000D01*
%TO.C,C19*%
X157103733Y-76240000D02*
X157396267Y-76240000D01*
X157103733Y-77260000D02*
X157396267Y-77260000D01*
%TO.C,C6*%
X126396267Y-91990000D02*
X126103733Y-91990000D01*
X126396267Y-93010000D02*
X126103733Y-93010000D01*
%TO.C,R3*%
X126735000Y-58772936D02*
X126735000Y-59227064D01*
X125265000Y-58772936D02*
X125265000Y-59227064D01*
%TO.C,R4*%
X126735000Y-67977064D02*
X126735000Y-67522936D01*
X125265000Y-67977064D02*
X125265000Y-67522936D01*
%TO.C,R5*%
X150015000Y-76522936D02*
X150015000Y-76977064D01*
X151485000Y-76522936D02*
X151485000Y-76977064D01*
%TO.C,R7*%
X157477064Y-81235000D02*
X157022936Y-81235000D01*
X157477064Y-79765000D02*
X157022936Y-79765000D01*
%TO.C,C23*%
X166638248Y-75973000D02*
X167160752Y-75973000D01*
X166638248Y-77443000D02*
X167160752Y-77443000D01*
%TO.C,C25*%
X168429000Y-64762748D02*
X168429000Y-65285252D01*
X169899000Y-64762748D02*
X169899000Y-65285252D01*
%TO.C,C30*%
X154240000Y-49240000D02*
X154240000Y-53290000D01*
X164760000Y-58695563D02*
X164760000Y-55710000D01*
X154240000Y-59760000D02*
X154240000Y-55710000D01*
X165625000Y-51415000D02*
X165625000Y-52665000D01*
X163695563Y-59760000D02*
X154240000Y-59760000D01*
X163695563Y-49240000D02*
X154240000Y-49240000D01*
X164760000Y-50304437D02*
X164760000Y-53290000D01*
X164760000Y-58695563D02*
X163695563Y-59760000D01*
X164760000Y-50304437D02*
X163695563Y-49240000D01*
X166250000Y-52040000D02*
X165000000Y-52040000D01*
%TD*%
M02*
