M48
; DRILL file {KiCad (6.0.2-0)} date Tuesday, 22 February 2022 at 22:16:19
; FORMAT={-:-/ absolute / inch / decimal}
; #@! TF.CreationDate,2022-02-22T22:16:19+08:00
; #@! TF.GenerationSoftware,Kicad,Pcbnew,(6.0.2-0)
; #@! TF.FileFunction,Plated,1,2,PTH
FMAT,2
INCH
; #@! TA.AperFunction,Plated,PTH,ComponentDrill
T1C0.0315
; #@! TA.AperFunction,Plated,PTH,ComponentDrill
T2C0.0394
; #@! TA.AperFunction,Plated,PTH,ComponentDrill
T3C0.0429
; #@! TA.AperFunction,Plated,PTH,ComponentDrill
T4C0.0472
; #@! TA.AperFunction,Plated,PTH,ComponentDrill
T5C0.0512
%
G90
G05
T1
X4.9016Y-3.1496
X4.9016Y-3.6417
X5.0394Y-3.1496
X5.0394Y-3.6417
X5.1378Y-2.9035
X5.2067Y-3.3268
X5.2067Y-3.4646
X5.2756Y-2.9035
X5.4626Y-2.6181
X5.4626Y-2.7181
X5.4626Y-2.8181
X5.4626Y-2.9181
X5.4626Y-3.0181
X5.4626Y-3.1181
X5.4626Y-3.2181
X5.4626Y-3.3181
X5.4626Y-3.4181
X5.4626Y-3.5181
X5.5118Y-2.4409
X5.5118Y-3.7008
X5.7087Y-2.4409
X5.7087Y-3.7008
X5.7626Y-2.6181
X5.7626Y-2.7181
X5.7626Y-2.8181
X5.7626Y-2.9181
X5.7626Y-3.0181
X5.7626Y-3.1181
X5.7626Y-3.2181
X5.7626Y-3.3181
X5.7626Y-3.4181
X5.7626Y-3.5181
X5.935Y-2.5787
X5.935Y-2.7756
X5.935Y-3.2874
X5.935Y-3.4843
X6.1024Y-3.0217
X6.2992Y-3.0217
X6.4016Y-3.78
X6.47Y-3.02
X6.5984Y-3.78
X6.66Y-2.4616
X6.66Y-2.6584
X6.6669Y-3.02
T2
X5.2067Y-2.1457
X5.2067Y-4.065
X5.502Y-2.1457
X5.502Y-4.065
X6.1319Y-2.1457
X6.1319Y-4.065
X6.4272Y-2.1457
X6.4272Y-4.065
T3
X5.187Y-2.4886
X5.187Y-2.5886
X5.7563Y-2.1555
X5.7579Y-4.065
X5.8563Y-2.1555
X5.8579Y-4.065
T4
X4.9606Y-2.2146
X4.9606Y-2.4146
X4.9606Y-2.5657
X4.9606Y-2.7657
X5.8918Y-3.79
X5.935Y-2.9232
X5.935Y-3.1232
X6.0918Y-3.79
X6.0992Y-3.1693
X6.22Y-2.54
X6.22Y-2.74
X6.2992Y-3.1693
X6.32Y-3.48
X6.51Y-2.4618
X6.51Y-2.6618
X6.52Y-3.48
T5
X4.4094Y-2.2835
X4.4094Y-2.4803
X4.4094Y-2.6772
X4.6063Y-2.2835
X4.6063Y-2.4803
X4.6063Y-2.6772
T1
G00X4.3701Y-3.2736
M15
G01X4.3701Y-3.3012
M16
G05
G00X4.5531Y-3.0906
M15
G01X4.5807Y-3.0906
M16
G05
G00X4.5531Y-3.189
M15
G01X4.5807Y-3.189
M16
G05
G00X4.5531Y-3.3858
M15
G01X4.5807Y-3.3858
M16
G05
G00X4.5531Y-3.4843
M15
G01X4.5807Y-3.4843
M16
G05
T2
G00X4.421Y-3.7795
M15
G01X4.4997Y-3.7795
M16
G05
G00X4.421Y-4.0157
M15
G01X4.4997Y-4.0157
M16
G05
G00X4.6454Y-3.937
M15
G01X4.6454Y-3.8583
M16
G05
T0
M30
