%TF.GenerationSoftware,KiCad,Pcbnew,(6.0.2-0)*%
%TF.CreationDate,2022-02-22T22:16:16+08:00*%
%TF.ProjectId,TPA3125D2,54504133-3132-4354-9432-2e6b69636164,rev?*%
%TF.SameCoordinates,Original*%
%TF.FileFunction,Soldermask,Bot*%
%TF.FilePolarity,Negative*%
%FSLAX46Y46*%
G04 Gerber Fmt 4.6, Leading zero omitted, Abs format (unit mm)*
G04 Created by KiCad (PCBNEW (6.0.2-0)) date 2022-02-22 22:16:16*
%MOMM*%
%LPD*%
G01*
G04 APERTURE LIST*
G04 Aperture macros list*
%AMRoundRect*
0 Rectangle with rounded corners*
0 $1 Rounding radius*
0 $2 $3 $4 $5 $6 $7 $8 $9 X,Y pos of 4 corners*
0 Add a 4 corners polygon primitive as box body*
4,1,4,$2,$3,$4,$5,$6,$7,$8,$9,$2,$3,0*
0 Add four circle primitives for the rounded corners*
1,1,$1+$1,$2,$3*
1,1,$1+$1,$4,$5*
1,1,$1+$1,$6,$7*
1,1,$1+$1,$8,$9*
0 Add four rect primitives between the rounded corners*
20,1,$1+$1,$2,$3,$4,$5,0*
20,1,$1+$1,$4,$5,$6,$7,0*
20,1,$1+$1,$6,$7,$8,$9,0*
20,1,$1+$1,$8,$9,$2,$3,0*%
G04 Aperture macros list end*
%ADD10C,0.100000*%
%ADD11R,1.600000X1.600000*%
%ADD12C,1.600000*%
%ADD13RoundRect,0.250000X0.620000X-0.620000X0.620000X0.620000X-0.620000X0.620000X-0.620000X-0.620000X0*%
%ADD14C,1.740000*%
%ADD15R,3.500000X3.500000*%
%ADD16RoundRect,0.750000X1.000000X-0.750000X1.000000X0.750000X-1.000000X0.750000X-1.000000X-0.750000X0*%
%ADD17RoundRect,0.875000X0.875000X-0.875000X0.875000X0.875000X-0.875000X0.875000X-0.875000X-0.875000X0*%
%ADD18RoundRect,0.250000X0.620000X0.620000X-0.620000X0.620000X-0.620000X-0.620000X0.620000X-0.620000X0*%
%ADD19RoundRect,0.250000X-0.620000X-0.620000X0.620000X-0.620000X0.620000X0.620000X-0.620000X0.620000X0*%
%ADD20C,2.400000*%
%ADD21O,2.400000X2.400000*%
%ADD22C,2.340000*%
%ADD23R,2.400000X1.600000*%
%ADD24O,2.400000X1.600000*%
%ADD25C,1.200000*%
%ADD26R,2.500000X1.800000*%
%ADD27R,1.800000X2.500000*%
%ADD28R,2.000000X2.000000*%
%ADD29C,2.000000*%
%ADD30RoundRect,0.250000X1.950000X0.700000X-1.950000X0.700000X-1.950000X-0.700000X1.950000X-0.700000X0*%
%ADD31RoundRect,0.250000X-0.475000X0.337500X-0.475000X-0.337500X0.475000X-0.337500X0.475000X0.337500X0*%
%ADD32RoundRect,0.250000X0.475000X-0.337500X0.475000X0.337500X-0.475000X0.337500X-0.475000X-0.337500X0*%
%ADD33RoundRect,0.250000X-0.337500X-0.475000X0.337500X-0.475000X0.337500X0.475000X-0.337500X0.475000X0*%
%ADD34RoundRect,0.250000X-0.450000X0.350000X-0.450000X-0.350000X0.450000X-0.350000X0.450000X0.350000X0*%
%ADD35RoundRect,0.250000X-0.350000X-0.450000X0.350000X-0.450000X0.350000X0.450000X-0.350000X0.450000X0*%
%ADD36RoundRect,0.250000X-1.950000X-0.700000X1.950000X-0.700000X1.950000X0.700000X-1.950000X0.700000X0*%
%ADD37RoundRect,0.237500X0.300000X0.237500X-0.300000X0.237500X-0.300000X-0.237500X0.300000X-0.237500X0*%
%ADD38RoundRect,0.237500X-0.237500X0.300000X-0.237500X-0.300000X0.237500X-0.300000X0.237500X0.300000X0*%
%ADD39RoundRect,0.237500X-0.300000X-0.237500X0.300000X-0.237500X0.300000X0.237500X-0.300000X0.237500X0*%
%ADD40RoundRect,0.250000X0.450000X-0.350000X0.450000X0.350000X-0.450000X0.350000X-0.450000X-0.350000X0*%
%ADD41RoundRect,0.250000X0.350000X0.450000X-0.350000X0.450000X-0.350000X-0.450000X0.350000X-0.450000X0*%
G04 APERTURE END LIST*
D10*
X172000000Y-111500000D02*
X104250000Y-111500000D01*
X104250000Y-111500000D02*
X104250000Y-45750000D01*
X104250000Y-45750000D02*
X172000000Y-45750000D01*
X172000000Y-45750000D02*
X172000000Y-111500000D01*
G36*
X172000000Y-111500000D02*
G01*
X104250000Y-111500000D01*
X104250000Y-45750000D01*
X172000000Y-45750000D01*
X172000000Y-111500000D01*
G37*
X172000000Y-111500000D02*
X104250000Y-111500000D01*
X104250000Y-45750000D01*
X172000000Y-45750000D01*
X172000000Y-111500000D01*
D11*
%TO.C,C3*%
X128000000Y-80000000D03*
D12*
X124500000Y-80000000D03*
%TD*%
D11*
%TO.C,C7*%
X132250000Y-84500000D03*
D12*
X132250000Y-88000000D03*
%TD*%
D11*
%TO.C,C8*%
X128000000Y-92500000D03*
D12*
X124500000Y-92500000D03*
%TD*%
%TO.C,C14*%
X145000000Y-62000000D03*
X140000000Y-62000000D03*
%TD*%
%TO.C,C15*%
X145000000Y-94000000D03*
X140000000Y-94000000D03*
%TD*%
%TO.C,C22*%
X155000000Y-76750000D03*
X160000000Y-76750000D03*
%TD*%
D13*
%TO.C,J3*%
X131750000Y-65750000D03*
D14*
X131750000Y-63210000D03*
%TD*%
D15*
%TO.C,J2*%
X113292500Y-96000000D03*
D16*
X113292500Y-102000000D03*
D17*
X117992500Y-99000000D03*
%TD*%
D18*
%TO.C,J4*%
X148750000Y-54750000D03*
D14*
X146210000Y-54750000D03*
%TD*%
D19*
%TO.C,J5*%
X146250000Y-103250000D03*
D14*
X148790000Y-103250000D03*
%TD*%
D20*
%TO.C,L1*%
X157988000Y-69596000D03*
D21*
X157988000Y-64516000D03*
%TD*%
D20*
%TO.C,L2*%
X160528000Y-88392000D03*
D21*
X165608000Y-88392000D03*
%TD*%
D22*
%TO.C,RV1*%
X112000000Y-58000000D03*
X112000000Y-63000000D03*
X112000000Y-68000000D03*
X117000000Y-58000000D03*
X117000000Y-63000000D03*
X117000000Y-68000000D03*
%TD*%
D23*
%TO.C,U1*%
X138750000Y-66500000D03*
D24*
X138750000Y-69040000D03*
X138750000Y-71580000D03*
X138750000Y-74120000D03*
X138750000Y-76660000D03*
X138750000Y-79200000D03*
X138750000Y-81740000D03*
X138750000Y-84280000D03*
X138750000Y-86820000D03*
X138750000Y-89360000D03*
X146370000Y-89360000D03*
X146370000Y-86820000D03*
X146370000Y-84280000D03*
X146370000Y-81740000D03*
X146370000Y-79200000D03*
X146370000Y-76660000D03*
X146370000Y-74120000D03*
X146370000Y-71580000D03*
X146370000Y-69040000D03*
X146370000Y-66500000D03*
%TD*%
D11*
%TO.C,C2*%
X134000000Y-73750000D03*
D12*
X130500000Y-73750000D03*
%TD*%
%TO.C,C20*%
X150750000Y-65500000D03*
X150750000Y-70500000D03*
%TD*%
D25*
%TO.C,J1*%
X111000000Y-78500000D03*
X108500000Y-88500000D03*
X111000000Y-88500000D03*
X116000000Y-83500000D03*
X108500000Y-78500000D03*
D26*
X116000000Y-88500000D03*
X116000000Y-86000000D03*
D27*
X111000000Y-83500000D03*
D26*
X116000000Y-78500000D03*
X116000000Y-81000000D03*
%TD*%
D28*
%TO.C,C9*%
X132250000Y-54500000D03*
D29*
X139750000Y-54500000D03*
%TD*%
D28*
%TO.C,C10*%
X139750000Y-103250000D03*
D29*
X132250000Y-103250000D03*
%TD*%
D12*
%TO.C,C27*%
X169164000Y-62524000D03*
X169164000Y-67524000D03*
%TD*%
%TO.C,C28*%
X162600000Y-96012000D03*
X167600000Y-96012000D03*
%TD*%
D28*
%TO.C,C29*%
X163250000Y-54500000D03*
D29*
X155750000Y-54500000D03*
%TD*%
D28*
%TO.C,C32*%
X163250000Y-103250000D03*
D29*
X155750000Y-103250000D03*
%TD*%
D20*
%TO.C,R11*%
X165354000Y-62530000D03*
D21*
X165354000Y-67610000D03*
%TD*%
D12*
%TO.C,C18*%
X150750000Y-88500000D03*
X150750000Y-83500000D03*
%TD*%
D20*
%TO.C,R1*%
X126000000Y-56250000D03*
D21*
X126000000Y-61330000D03*
%TD*%
D20*
%TO.C,R2*%
X126000000Y-70250000D03*
D21*
X126000000Y-65170000D03*
%TD*%
D20*
%TO.C,R6*%
X150750000Y-74250000D03*
D21*
X150750000Y-79330000D03*
%TD*%
D20*
%TO.C,R10*%
X160000000Y-80500000D03*
D21*
X154920000Y-80500000D03*
%TD*%
D20*
%TO.C,R12*%
X149652000Y-96266000D03*
D21*
X154732000Y-96266000D03*
%TD*%
D12*
%TO.C,C24*%
X164338000Y-76708000D03*
X169338000Y-76708000D03*
%TD*%
D30*
%TO.C,C12*%
X140350000Y-103250000D03*
X131650000Y-103250000D03*
%TD*%
D31*
%TO.C,C21*%
X150750000Y-66962500D03*
X150750000Y-69037500D03*
%TD*%
D32*
%TO.C,C17*%
X150750000Y-86787500D03*
X150750000Y-84712500D03*
%TD*%
D33*
%TO.C,C26*%
X164041000Y-96012000D03*
X166116000Y-96012000D03*
%TD*%
D30*
%TO.C,C31*%
X163850000Y-103250000D03*
X155150000Y-103250000D03*
%TD*%
D34*
%TO.C,R8*%
X165354000Y-64024000D03*
X165354000Y-66024000D03*
%TD*%
D35*
%TO.C,R9*%
X151416000Y-96266000D03*
X153416000Y-96266000D03*
%TD*%
D36*
%TO.C,C11*%
X131900000Y-54500000D03*
X140600000Y-54500000D03*
%TD*%
D37*
%TO.C,C13*%
X143225000Y-62000000D03*
X141500000Y-62000000D03*
%TD*%
%TO.C,C1*%
X133112500Y-73750000D03*
X131387500Y-73750000D03*
%TD*%
%TO.C,C4*%
X127112500Y-80000000D03*
X125387500Y-80000000D03*
%TD*%
D38*
%TO.C,C5*%
X132250000Y-85387500D03*
X132250000Y-87112500D03*
%TD*%
D37*
%TO.C,C16*%
X143225000Y-94000000D03*
X141500000Y-94000000D03*
%TD*%
D39*
%TO.C,C19*%
X156387500Y-76750000D03*
X158112500Y-76750000D03*
%TD*%
D37*
%TO.C,C6*%
X127112500Y-92500000D03*
X125387500Y-92500000D03*
%TD*%
D34*
%TO.C,R3*%
X126000000Y-58000000D03*
X126000000Y-60000000D03*
%TD*%
D40*
%TO.C,R4*%
X126000000Y-68750000D03*
X126000000Y-66750000D03*
%TD*%
D34*
%TO.C,R5*%
X150750000Y-75750000D03*
X150750000Y-77750000D03*
%TD*%
D41*
%TO.C,R7*%
X158250000Y-80500000D03*
X156250000Y-80500000D03*
%TD*%
D33*
%TO.C,C23*%
X165862000Y-76708000D03*
X167937000Y-76708000D03*
%TD*%
D31*
%TO.C,C25*%
X169164000Y-63986500D03*
X169164000Y-66061500D03*
%TD*%
D30*
%TO.C,C30*%
X163850000Y-54500000D03*
X155150000Y-54500000D03*
%TD*%
M02*
