%TF.GenerationSoftware,KiCad,Pcbnew,(6.0.2-0)*%
%TF.CreationDate,2022-02-22T22:16:16+08:00*%
%TF.ProjectId,TPA3125D2,54504133-3132-4354-9432-2e6b69636164,rev?*%
%TF.SameCoordinates,Original*%
%TF.FileFunction,Legend,Top*%
%TF.FilePolarity,Positive*%
%FSLAX46Y46*%
G04 Gerber Fmt 4.6, Leading zero omitted, Abs format (unit mm)*
G04 Created by KiCad (PCBNEW (6.0.2-0)) date 2022-02-22 22:16:16*
%MOMM*%
%LPD*%
G01*
G04 APERTURE LIST*
%ADD10C,0.150000*%
%ADD11C,0.120000*%
%ADD12C,0.100000*%
G04 APERTURE END LIST*
D10*
%TO.C,C3*%
X126083333Y-85607142D02*
X126035714Y-85654761D01*
X125892857Y-85702380D01*
X125797619Y-85702380D01*
X125654761Y-85654761D01*
X125559523Y-85559523D01*
X125511904Y-85464285D01*
X125464285Y-85273809D01*
X125464285Y-85130952D01*
X125511904Y-84940476D01*
X125559523Y-84845238D01*
X125654761Y-84750000D01*
X125797619Y-84702380D01*
X125892857Y-84702380D01*
X126035714Y-84750000D01*
X126083333Y-84797619D01*
X126416666Y-84702380D02*
X127035714Y-84702380D01*
X126702380Y-85083333D01*
X126845238Y-85083333D01*
X126940476Y-85130952D01*
X126988095Y-85178571D01*
X127035714Y-85273809D01*
X127035714Y-85511904D01*
X126988095Y-85607142D01*
X126940476Y-85654761D01*
X126845238Y-85702380D01*
X126559523Y-85702380D01*
X126464285Y-85654761D01*
X126416666Y-85607142D01*
%TO.C,C7*%
X132833333Y-91857142D02*
X132785714Y-91904761D01*
X132642857Y-91952380D01*
X132547619Y-91952380D01*
X132404761Y-91904761D01*
X132309523Y-91809523D01*
X132261904Y-91714285D01*
X132214285Y-91523809D01*
X132214285Y-91380952D01*
X132261904Y-91190476D01*
X132309523Y-91095238D01*
X132404761Y-91000000D01*
X132547619Y-90952380D01*
X132642857Y-90952380D01*
X132785714Y-91000000D01*
X132833333Y-91047619D01*
X133166666Y-90952380D02*
X133833333Y-90952380D01*
X133404761Y-91952380D01*
%TO.C,C8*%
X126083333Y-98107142D02*
X126035714Y-98154761D01*
X125892857Y-98202380D01*
X125797619Y-98202380D01*
X125654761Y-98154761D01*
X125559523Y-98059523D01*
X125511904Y-97964285D01*
X125464285Y-97773809D01*
X125464285Y-97630952D01*
X125511904Y-97440476D01*
X125559523Y-97345238D01*
X125654761Y-97250000D01*
X125797619Y-97202380D01*
X125892857Y-97202380D01*
X126035714Y-97250000D01*
X126083333Y-97297619D01*
X126654761Y-97630952D02*
X126559523Y-97583333D01*
X126511904Y-97535714D01*
X126464285Y-97440476D01*
X126464285Y-97392857D01*
X126511904Y-97297619D01*
X126559523Y-97250000D01*
X126654761Y-97202380D01*
X126845238Y-97202380D01*
X126940476Y-97250000D01*
X126988095Y-97297619D01*
X127035714Y-97392857D01*
X127035714Y-97440476D01*
X126988095Y-97535714D01*
X126940476Y-97583333D01*
X126845238Y-97630952D01*
X126654761Y-97630952D01*
X126559523Y-97678571D01*
X126511904Y-97726190D01*
X126464285Y-97821428D01*
X126464285Y-98011904D01*
X126511904Y-98107142D01*
X126559523Y-98154761D01*
X126654761Y-98202380D01*
X126845238Y-98202380D01*
X126940476Y-98154761D01*
X126988095Y-98107142D01*
X127035714Y-98011904D01*
X127035714Y-97821428D01*
X126988095Y-97726190D01*
X126940476Y-97678571D01*
X126845238Y-97630952D01*
%TO.C,C14*%
X142857142Y-60357142D02*
X142809523Y-60404761D01*
X142666666Y-60452380D01*
X142571428Y-60452380D01*
X142428571Y-60404761D01*
X142333333Y-60309523D01*
X142285714Y-60214285D01*
X142238095Y-60023809D01*
X142238095Y-59880952D01*
X142285714Y-59690476D01*
X142333333Y-59595238D01*
X142428571Y-59500000D01*
X142571428Y-59452380D01*
X142666666Y-59452380D01*
X142809523Y-59500000D01*
X142857142Y-59547619D01*
X143809523Y-60452380D02*
X143238095Y-60452380D01*
X143523809Y-60452380D02*
X143523809Y-59452380D01*
X143428571Y-59595238D01*
X143333333Y-59690476D01*
X143238095Y-59738095D01*
X144666666Y-59785714D02*
X144666666Y-60452380D01*
X144428571Y-59404761D02*
X144190476Y-60119047D01*
X144809523Y-60119047D01*
%TO.C,C15*%
X141857142Y-96857142D02*
X141809523Y-96904761D01*
X141666666Y-96952380D01*
X141571428Y-96952380D01*
X141428571Y-96904761D01*
X141333333Y-96809523D01*
X141285714Y-96714285D01*
X141238095Y-96523809D01*
X141238095Y-96380952D01*
X141285714Y-96190476D01*
X141333333Y-96095238D01*
X141428571Y-96000000D01*
X141571428Y-95952380D01*
X141666666Y-95952380D01*
X141809523Y-96000000D01*
X141857142Y-96047619D01*
X142809523Y-96952380D02*
X142238095Y-96952380D01*
X142523809Y-96952380D02*
X142523809Y-95952380D01*
X142428571Y-96095238D01*
X142333333Y-96190476D01*
X142238095Y-96238095D01*
X143714285Y-95952380D02*
X143238095Y-95952380D01*
X143190476Y-96428571D01*
X143238095Y-96380952D01*
X143333333Y-96333333D01*
X143571428Y-96333333D01*
X143666666Y-96380952D01*
X143714285Y-96428571D01*
X143761904Y-96523809D01*
X143761904Y-96761904D01*
X143714285Y-96857142D01*
X143666666Y-96904761D01*
X143571428Y-96952380D01*
X143333333Y-96952380D01*
X143238095Y-96904761D01*
X143190476Y-96857142D01*
%TO.C,C22*%
X162409142Y-77350857D02*
X162456761Y-77398476D01*
X162504380Y-77541333D01*
X162504380Y-77636571D01*
X162456761Y-77779428D01*
X162361523Y-77874666D01*
X162266285Y-77922285D01*
X162075809Y-77969904D01*
X161932952Y-77969904D01*
X161742476Y-77922285D01*
X161647238Y-77874666D01*
X161552000Y-77779428D01*
X161504380Y-77636571D01*
X161504380Y-77541333D01*
X161552000Y-77398476D01*
X161599619Y-77350857D01*
X161599619Y-76969904D02*
X161552000Y-76922285D01*
X161504380Y-76827047D01*
X161504380Y-76588952D01*
X161552000Y-76493714D01*
X161599619Y-76446095D01*
X161694857Y-76398476D01*
X161790095Y-76398476D01*
X161932952Y-76446095D01*
X162504380Y-77017523D01*
X162504380Y-76398476D01*
X161599619Y-76017523D02*
X161552000Y-75969904D01*
X161504380Y-75874666D01*
X161504380Y-75636571D01*
X161552000Y-75541333D01*
X161599619Y-75493714D01*
X161694857Y-75446095D01*
X161790095Y-75446095D01*
X161932952Y-75493714D01*
X162504380Y-76065142D01*
X162504380Y-75446095D01*
%TO.C,J3*%
X128952380Y-59833333D02*
X129666666Y-59833333D01*
X129809523Y-59880952D01*
X129904761Y-59976190D01*
X129952380Y-60119047D01*
X129952380Y-60214285D01*
X128952380Y-59452380D02*
X128952380Y-58833333D01*
X129333333Y-59166666D01*
X129333333Y-59023809D01*
X129380952Y-58928571D01*
X129428571Y-58880952D01*
X129523809Y-58833333D01*
X129761904Y-58833333D01*
X129857142Y-58880952D01*
X129904761Y-58928571D01*
X129952380Y-59023809D01*
X129952380Y-59309523D01*
X129904761Y-59404761D01*
X129857142Y-59452380D01*
%TO.C,J2*%
X118655380Y-103095333D02*
X119369666Y-103095333D01*
X119512523Y-103142952D01*
X119607761Y-103238190D01*
X119655380Y-103381047D01*
X119655380Y-103476285D01*
X118750619Y-102666761D02*
X118703000Y-102619142D01*
X118655380Y-102523904D01*
X118655380Y-102285809D01*
X118703000Y-102190571D01*
X118750619Y-102142952D01*
X118845857Y-102095333D01*
X118941095Y-102095333D01*
X119083952Y-102142952D01*
X119655380Y-102714380D01*
X119655380Y-102095333D01*
%TO.C,J4*%
X147166666Y-57952380D02*
X147166666Y-58666666D01*
X147119047Y-58809523D01*
X147023809Y-58904761D01*
X146880952Y-58952380D01*
X146785714Y-58952380D01*
X148071428Y-58285714D02*
X148071428Y-58952380D01*
X147833333Y-57904761D02*
X147595238Y-58619047D01*
X148214285Y-58619047D01*
%TO.C,J5*%
X147166666Y-98952380D02*
X147166666Y-99666666D01*
X147119047Y-99809523D01*
X147023809Y-99904761D01*
X146880952Y-99952380D01*
X146785714Y-99952380D01*
X148119047Y-98952380D02*
X147642857Y-98952380D01*
X147595238Y-99428571D01*
X147642857Y-99380952D01*
X147738095Y-99333333D01*
X147976190Y-99333333D01*
X148071428Y-99380952D01*
X148119047Y-99428571D01*
X148166666Y-99523809D01*
X148166666Y-99761904D01*
X148119047Y-99857142D01*
X148071428Y-99904761D01*
X147976190Y-99952380D01*
X147738095Y-99952380D01*
X147642857Y-99904761D01*
X147595238Y-99857142D01*
%TO.C,L1*%
X152820380Y-67222666D02*
X152820380Y-67698857D01*
X151820380Y-67698857D01*
X152820380Y-66365523D02*
X152820380Y-66936952D01*
X152820380Y-66651238D02*
X151820380Y-66651238D01*
X151963238Y-66746476D01*
X152058476Y-66841714D01*
X152106095Y-66936952D01*
%TO.C,L2*%
X162901333Y-83224380D02*
X162425142Y-83224380D01*
X162425142Y-82224380D01*
X163187047Y-82319619D02*
X163234666Y-82272000D01*
X163329904Y-82224380D01*
X163568000Y-82224380D01*
X163663238Y-82272000D01*
X163710857Y-82319619D01*
X163758476Y-82414857D01*
X163758476Y-82510095D01*
X163710857Y-82652952D01*
X163139428Y-83224380D01*
X163758476Y-83224380D01*
%TO.C,RV1*%
X111404761Y-73652380D02*
X111071428Y-73176190D01*
X110833333Y-73652380D02*
X110833333Y-72652380D01*
X111214285Y-72652380D01*
X111309523Y-72700000D01*
X111357142Y-72747619D01*
X111404761Y-72842857D01*
X111404761Y-72985714D01*
X111357142Y-73080952D01*
X111309523Y-73128571D01*
X111214285Y-73176190D01*
X110833333Y-73176190D01*
X111690476Y-72652380D02*
X112023809Y-73652380D01*
X112357142Y-72652380D01*
X113214285Y-73652380D02*
X112642857Y-73652380D01*
X112928571Y-73652380D02*
X112928571Y-72652380D01*
X112833333Y-72795238D01*
X112738095Y-72890476D01*
X112642857Y-72938095D01*
%TO.C,U1*%
X138188095Y-63692380D02*
X138188095Y-64501904D01*
X138235714Y-64597142D01*
X138283333Y-64644761D01*
X138378571Y-64692380D01*
X138569047Y-64692380D01*
X138664285Y-64644761D01*
X138711904Y-64597142D01*
X138759523Y-64501904D01*
X138759523Y-63692380D01*
X139759523Y-64692380D02*
X139188095Y-64692380D01*
X139473809Y-64692380D02*
X139473809Y-63692380D01*
X139378571Y-63835238D01*
X139283333Y-63930476D01*
X139188095Y-63978095D01*
%TO.C,C2*%
X132083333Y-79357142D02*
X132035714Y-79404761D01*
X131892857Y-79452380D01*
X131797619Y-79452380D01*
X131654761Y-79404761D01*
X131559523Y-79309523D01*
X131511904Y-79214285D01*
X131464285Y-79023809D01*
X131464285Y-78880952D01*
X131511904Y-78690476D01*
X131559523Y-78595238D01*
X131654761Y-78500000D01*
X131797619Y-78452380D01*
X131892857Y-78452380D01*
X132035714Y-78500000D01*
X132083333Y-78547619D01*
X132464285Y-78547619D02*
X132511904Y-78500000D01*
X132607142Y-78452380D01*
X132845238Y-78452380D01*
X132940476Y-78500000D01*
X132988095Y-78547619D01*
X133035714Y-78642857D01*
X133035714Y-78738095D01*
X132988095Y-78880952D01*
X132416666Y-79452380D01*
X133035714Y-79452380D01*
%TO.C,C20*%
X151357142Y-63142857D02*
X151404761Y-63190476D01*
X151452380Y-63333333D01*
X151452380Y-63428571D01*
X151404761Y-63571428D01*
X151309523Y-63666666D01*
X151214285Y-63714285D01*
X151023809Y-63761904D01*
X150880952Y-63761904D01*
X150690476Y-63714285D01*
X150595238Y-63666666D01*
X150500000Y-63571428D01*
X150452380Y-63428571D01*
X150452380Y-63333333D01*
X150500000Y-63190476D01*
X150547619Y-63142857D01*
X150547619Y-62761904D02*
X150500000Y-62714285D01*
X150452380Y-62619047D01*
X150452380Y-62380952D01*
X150500000Y-62285714D01*
X150547619Y-62238095D01*
X150642857Y-62190476D01*
X150738095Y-62190476D01*
X150880952Y-62238095D01*
X151452380Y-62809523D01*
X151452380Y-62190476D01*
X150452380Y-61571428D02*
X150452380Y-61476190D01*
X150500000Y-61380952D01*
X150547619Y-61333333D01*
X150642857Y-61285714D01*
X150833333Y-61238095D01*
X151071428Y-61238095D01*
X151261904Y-61285714D01*
X151357142Y-61333333D01*
X151404761Y-61380952D01*
X151452380Y-61476190D01*
X151452380Y-61571428D01*
X151404761Y-61666666D01*
X151357142Y-61714285D01*
X151261904Y-61761904D01*
X151071428Y-61809523D01*
X150833333Y-61809523D01*
X150642857Y-61761904D01*
X150547619Y-61714285D01*
X150500000Y-61666666D01*
X150452380Y-61571428D01*
%TO.C,J1*%
X117437666Y-75840380D02*
X117437666Y-76554666D01*
X117390047Y-76697523D01*
X117294809Y-76792761D01*
X117151952Y-76840380D01*
X117056714Y-76840380D01*
X118437666Y-76840380D02*
X117866238Y-76840380D01*
X118151952Y-76840380D02*
X118151952Y-75840380D01*
X118056714Y-75983238D01*
X117961476Y-76078476D01*
X117866238Y-76126095D01*
%TO.C,C9*%
X128333333Y-51857142D02*
X128285714Y-51904761D01*
X128142857Y-51952380D01*
X128047619Y-51952380D01*
X127904761Y-51904761D01*
X127809523Y-51809523D01*
X127761904Y-51714285D01*
X127714285Y-51523809D01*
X127714285Y-51380952D01*
X127761904Y-51190476D01*
X127809523Y-51095238D01*
X127904761Y-51000000D01*
X128047619Y-50952380D01*
X128142857Y-50952380D01*
X128285714Y-51000000D01*
X128333333Y-51047619D01*
X128809523Y-51952380D02*
X129000000Y-51952380D01*
X129095238Y-51904761D01*
X129142857Y-51857142D01*
X129238095Y-51714285D01*
X129285714Y-51523809D01*
X129285714Y-51142857D01*
X129238095Y-51047619D01*
X129190476Y-51000000D01*
X129095238Y-50952380D01*
X128904761Y-50952380D01*
X128809523Y-51000000D01*
X128761904Y-51047619D01*
X128714285Y-51142857D01*
X128714285Y-51380952D01*
X128761904Y-51476190D01*
X128809523Y-51523809D01*
X128904761Y-51571428D01*
X129095238Y-51571428D01*
X129190476Y-51523809D01*
X129238095Y-51476190D01*
X129285714Y-51380952D01*
%TO.C,C10*%
X135357142Y-97357142D02*
X135309523Y-97404761D01*
X135166666Y-97452380D01*
X135071428Y-97452380D01*
X134928571Y-97404761D01*
X134833333Y-97309523D01*
X134785714Y-97214285D01*
X134738095Y-97023809D01*
X134738095Y-96880952D01*
X134785714Y-96690476D01*
X134833333Y-96595238D01*
X134928571Y-96500000D01*
X135071428Y-96452380D01*
X135166666Y-96452380D01*
X135309523Y-96500000D01*
X135357142Y-96547619D01*
X136309523Y-97452380D02*
X135738095Y-97452380D01*
X136023809Y-97452380D02*
X136023809Y-96452380D01*
X135928571Y-96595238D01*
X135833333Y-96690476D01*
X135738095Y-96738095D01*
X136928571Y-96452380D02*
X137023809Y-96452380D01*
X137119047Y-96500000D01*
X137166666Y-96547619D01*
X137214285Y-96642857D01*
X137261904Y-96833333D01*
X137261904Y-97071428D01*
X137214285Y-97261904D01*
X137166666Y-97357142D01*
X137119047Y-97404761D01*
X137023809Y-97452380D01*
X136928571Y-97452380D01*
X136833333Y-97404761D01*
X136785714Y-97357142D01*
X136738095Y-97261904D01*
X136690476Y-97071428D01*
X136690476Y-96833333D01*
X136738095Y-96642857D01*
X136785714Y-96547619D01*
X136833333Y-96500000D01*
X136928571Y-96452380D01*
%TO.C,C27*%
X169521142Y-71000857D02*
X169568761Y-71048476D01*
X169616380Y-71191333D01*
X169616380Y-71286571D01*
X169568761Y-71429428D01*
X169473523Y-71524666D01*
X169378285Y-71572285D01*
X169187809Y-71619904D01*
X169044952Y-71619904D01*
X168854476Y-71572285D01*
X168759238Y-71524666D01*
X168664000Y-71429428D01*
X168616380Y-71286571D01*
X168616380Y-71191333D01*
X168664000Y-71048476D01*
X168711619Y-71000857D01*
X168711619Y-70619904D02*
X168664000Y-70572285D01*
X168616380Y-70477047D01*
X168616380Y-70238952D01*
X168664000Y-70143714D01*
X168711619Y-70096095D01*
X168806857Y-70048476D01*
X168902095Y-70048476D01*
X169044952Y-70096095D01*
X169616380Y-70667523D01*
X169616380Y-70048476D01*
X168616380Y-69715142D02*
X168616380Y-69048476D01*
X169616380Y-69477047D01*
%TO.C,C28*%
X170207142Y-96369142D02*
X170159523Y-96416761D01*
X170016666Y-96464380D01*
X169921428Y-96464380D01*
X169778571Y-96416761D01*
X169683333Y-96321523D01*
X169635714Y-96226285D01*
X169588095Y-96035809D01*
X169588095Y-95892952D01*
X169635714Y-95702476D01*
X169683333Y-95607238D01*
X169778571Y-95512000D01*
X169921428Y-95464380D01*
X170016666Y-95464380D01*
X170159523Y-95512000D01*
X170207142Y-95559619D01*
X170588095Y-95559619D02*
X170635714Y-95512000D01*
X170730952Y-95464380D01*
X170969047Y-95464380D01*
X171064285Y-95512000D01*
X171111904Y-95559619D01*
X171159523Y-95654857D01*
X171159523Y-95750095D01*
X171111904Y-95892952D01*
X170540476Y-96464380D01*
X171159523Y-96464380D01*
X171730952Y-95892952D02*
X171635714Y-95845333D01*
X171588095Y-95797714D01*
X171540476Y-95702476D01*
X171540476Y-95654857D01*
X171588095Y-95559619D01*
X171635714Y-95512000D01*
X171730952Y-95464380D01*
X171921428Y-95464380D01*
X172016666Y-95512000D01*
X172064285Y-95559619D01*
X172111904Y-95654857D01*
X172111904Y-95702476D01*
X172064285Y-95797714D01*
X172016666Y-95845333D01*
X171921428Y-95892952D01*
X171730952Y-95892952D01*
X171635714Y-95940571D01*
X171588095Y-95988190D01*
X171540476Y-96083428D01*
X171540476Y-96273904D01*
X171588095Y-96369142D01*
X171635714Y-96416761D01*
X171730952Y-96464380D01*
X171921428Y-96464380D01*
X172016666Y-96416761D01*
X172064285Y-96369142D01*
X172111904Y-96273904D01*
X172111904Y-96083428D01*
X172064285Y-95988190D01*
X172016666Y-95940571D01*
X171921428Y-95892952D01*
%TO.C,C29*%
X166357142Y-57857142D02*
X166309523Y-57904761D01*
X166166666Y-57952380D01*
X166071428Y-57952380D01*
X165928571Y-57904761D01*
X165833333Y-57809523D01*
X165785714Y-57714285D01*
X165738095Y-57523809D01*
X165738095Y-57380952D01*
X165785714Y-57190476D01*
X165833333Y-57095238D01*
X165928571Y-57000000D01*
X166071428Y-56952380D01*
X166166666Y-56952380D01*
X166309523Y-57000000D01*
X166357142Y-57047619D01*
X166738095Y-57047619D02*
X166785714Y-57000000D01*
X166880952Y-56952380D01*
X167119047Y-56952380D01*
X167214285Y-57000000D01*
X167261904Y-57047619D01*
X167309523Y-57142857D01*
X167309523Y-57238095D01*
X167261904Y-57380952D01*
X166690476Y-57952380D01*
X167309523Y-57952380D01*
X167785714Y-57952380D02*
X167976190Y-57952380D01*
X168071428Y-57904761D01*
X168119047Y-57857142D01*
X168214285Y-57714285D01*
X168261904Y-57523809D01*
X168261904Y-57142857D01*
X168214285Y-57047619D01*
X168166666Y-57000000D01*
X168071428Y-56952380D01*
X167880952Y-56952380D01*
X167785714Y-57000000D01*
X167738095Y-57047619D01*
X167690476Y-57142857D01*
X167690476Y-57380952D01*
X167738095Y-57476190D01*
X167785714Y-57523809D01*
X167880952Y-57571428D01*
X168071428Y-57571428D01*
X168166666Y-57523809D01*
X168214285Y-57476190D01*
X168261904Y-57380952D01*
%TO.C,C32*%
X165981142Y-105767142D02*
X165933523Y-105814761D01*
X165790666Y-105862380D01*
X165695428Y-105862380D01*
X165552571Y-105814761D01*
X165457333Y-105719523D01*
X165409714Y-105624285D01*
X165362095Y-105433809D01*
X165362095Y-105290952D01*
X165409714Y-105100476D01*
X165457333Y-105005238D01*
X165552571Y-104910000D01*
X165695428Y-104862380D01*
X165790666Y-104862380D01*
X165933523Y-104910000D01*
X165981142Y-104957619D01*
X166314476Y-104862380D02*
X166933523Y-104862380D01*
X166600190Y-105243333D01*
X166743047Y-105243333D01*
X166838285Y-105290952D01*
X166885904Y-105338571D01*
X166933523Y-105433809D01*
X166933523Y-105671904D01*
X166885904Y-105767142D01*
X166838285Y-105814761D01*
X166743047Y-105862380D01*
X166457333Y-105862380D01*
X166362095Y-105814761D01*
X166314476Y-105767142D01*
X167314476Y-104957619D02*
X167362095Y-104910000D01*
X167457333Y-104862380D01*
X167695428Y-104862380D01*
X167790666Y-104910000D01*
X167838285Y-104957619D01*
X167885904Y-105052857D01*
X167885904Y-105148095D01*
X167838285Y-105290952D01*
X167266857Y-105862380D01*
X167885904Y-105862380D01*
%TO.C,R11*%
X165806380Y-70922857D02*
X165330190Y-71256190D01*
X165806380Y-71494285D02*
X164806380Y-71494285D01*
X164806380Y-71113333D01*
X164854000Y-71018095D01*
X164901619Y-70970476D01*
X164996857Y-70922857D01*
X165139714Y-70922857D01*
X165234952Y-70970476D01*
X165282571Y-71018095D01*
X165330190Y-71113333D01*
X165330190Y-71494285D01*
X165806380Y-69970476D02*
X165806380Y-70541904D01*
X165806380Y-70256190D02*
X164806380Y-70256190D01*
X164949238Y-70351428D01*
X165044476Y-70446666D01*
X165092095Y-70541904D01*
X165806380Y-69018095D02*
X165806380Y-69589523D01*
X165806380Y-69303809D02*
X164806380Y-69303809D01*
X164949238Y-69399047D01*
X165044476Y-69494285D01*
X165092095Y-69589523D01*
%TO.C,C18*%
X151357142Y-92142857D02*
X151404761Y-92190476D01*
X151452380Y-92333333D01*
X151452380Y-92428571D01*
X151404761Y-92571428D01*
X151309523Y-92666666D01*
X151214285Y-92714285D01*
X151023809Y-92761904D01*
X150880952Y-92761904D01*
X150690476Y-92714285D01*
X150595238Y-92666666D01*
X150500000Y-92571428D01*
X150452380Y-92428571D01*
X150452380Y-92333333D01*
X150500000Y-92190476D01*
X150547619Y-92142857D01*
X151452380Y-91190476D02*
X151452380Y-91761904D01*
X151452380Y-91476190D02*
X150452380Y-91476190D01*
X150595238Y-91571428D01*
X150690476Y-91666666D01*
X150738095Y-91761904D01*
X150880952Y-90619047D02*
X150833333Y-90714285D01*
X150785714Y-90761904D01*
X150690476Y-90809523D01*
X150642857Y-90809523D01*
X150547619Y-90761904D01*
X150500000Y-90714285D01*
X150452380Y-90619047D01*
X150452380Y-90428571D01*
X150500000Y-90333333D01*
X150547619Y-90285714D01*
X150642857Y-90238095D01*
X150690476Y-90238095D01*
X150785714Y-90285714D01*
X150833333Y-90333333D01*
X150880952Y-90428571D01*
X150880952Y-90619047D01*
X150928571Y-90714285D01*
X150976190Y-90761904D01*
X151071428Y-90809523D01*
X151261904Y-90809523D01*
X151357142Y-90761904D01*
X151404761Y-90714285D01*
X151452380Y-90619047D01*
X151452380Y-90428571D01*
X151404761Y-90333333D01*
X151357142Y-90285714D01*
X151261904Y-90238095D01*
X151071428Y-90238095D01*
X150976190Y-90285714D01*
X150928571Y-90333333D01*
X150880952Y-90428571D01*
%TO.C,R1*%
X123452380Y-59166666D02*
X122976190Y-59500000D01*
X123452380Y-59738095D02*
X122452380Y-59738095D01*
X122452380Y-59357142D01*
X122500000Y-59261904D01*
X122547619Y-59214285D01*
X122642857Y-59166666D01*
X122785714Y-59166666D01*
X122880952Y-59214285D01*
X122928571Y-59261904D01*
X122976190Y-59357142D01*
X122976190Y-59738095D01*
X123452380Y-58214285D02*
X123452380Y-58785714D01*
X123452380Y-58500000D02*
X122452380Y-58500000D01*
X122595238Y-58595238D01*
X122690476Y-58690476D01*
X122738095Y-58785714D01*
%TO.C,R2*%
X123532380Y-67876666D02*
X123056190Y-68210000D01*
X123532380Y-68448095D02*
X122532380Y-68448095D01*
X122532380Y-68067142D01*
X122580000Y-67971904D01*
X122627619Y-67924285D01*
X122722857Y-67876666D01*
X122865714Y-67876666D01*
X122960952Y-67924285D01*
X123008571Y-67971904D01*
X123056190Y-68067142D01*
X123056190Y-68448095D01*
X122627619Y-67495714D02*
X122580000Y-67448095D01*
X122532380Y-67352857D01*
X122532380Y-67114761D01*
X122580000Y-67019523D01*
X122627619Y-66971904D01*
X122722857Y-66924285D01*
X122818095Y-66924285D01*
X122960952Y-66971904D01*
X123532380Y-67543333D01*
X123532380Y-66924285D01*
%TO.C,R6*%
X152952380Y-77166666D02*
X152476190Y-77500000D01*
X152952380Y-77738095D02*
X151952380Y-77738095D01*
X151952380Y-77357142D01*
X152000000Y-77261904D01*
X152047619Y-77214285D01*
X152142857Y-77166666D01*
X152285714Y-77166666D01*
X152380952Y-77214285D01*
X152428571Y-77261904D01*
X152476190Y-77357142D01*
X152476190Y-77738095D01*
X151952380Y-76309523D02*
X151952380Y-76500000D01*
X152000000Y-76595238D01*
X152047619Y-76642857D01*
X152190476Y-76738095D01*
X152380952Y-76785714D01*
X152761904Y-76785714D01*
X152857142Y-76738095D01*
X152904761Y-76690476D01*
X152952380Y-76595238D01*
X152952380Y-76404761D01*
X152904761Y-76309523D01*
X152857142Y-76261904D01*
X152761904Y-76214285D01*
X152523809Y-76214285D01*
X152428571Y-76261904D01*
X152380952Y-76309523D01*
X152333333Y-76404761D01*
X152333333Y-76595238D01*
X152380952Y-76690476D01*
X152428571Y-76738095D01*
X152523809Y-76785714D01*
%TO.C,R10*%
X162857142Y-80952380D02*
X162523809Y-80476190D01*
X162285714Y-80952380D02*
X162285714Y-79952380D01*
X162666666Y-79952380D01*
X162761904Y-80000000D01*
X162809523Y-80047619D01*
X162857142Y-80142857D01*
X162857142Y-80285714D01*
X162809523Y-80380952D01*
X162761904Y-80428571D01*
X162666666Y-80476190D01*
X162285714Y-80476190D01*
X163809523Y-80952380D02*
X163238095Y-80952380D01*
X163523809Y-80952380D02*
X163523809Y-79952380D01*
X163428571Y-80095238D01*
X163333333Y-80190476D01*
X163238095Y-80238095D01*
X164428571Y-79952380D02*
X164523809Y-79952380D01*
X164619047Y-80000000D01*
X164666666Y-80047619D01*
X164714285Y-80142857D01*
X164761904Y-80333333D01*
X164761904Y-80571428D01*
X164714285Y-80761904D01*
X164666666Y-80857142D01*
X164619047Y-80904761D01*
X164523809Y-80952380D01*
X164428571Y-80952380D01*
X164333333Y-80904761D01*
X164285714Y-80857142D01*
X164238095Y-80761904D01*
X164190476Y-80571428D01*
X164190476Y-80333333D01*
X164238095Y-80142857D01*
X164285714Y-80047619D01*
X164333333Y-80000000D01*
X164428571Y-79952380D01*
%TO.C,R12*%
X157009142Y-96468380D02*
X156675809Y-95992190D01*
X156437714Y-96468380D02*
X156437714Y-95468380D01*
X156818666Y-95468380D01*
X156913904Y-95516000D01*
X156961523Y-95563619D01*
X157009142Y-95658857D01*
X157009142Y-95801714D01*
X156961523Y-95896952D01*
X156913904Y-95944571D01*
X156818666Y-95992190D01*
X156437714Y-95992190D01*
X157961523Y-96468380D02*
X157390095Y-96468380D01*
X157675809Y-96468380D02*
X157675809Y-95468380D01*
X157580571Y-95611238D01*
X157485333Y-95706476D01*
X157390095Y-95754095D01*
X158342476Y-95563619D02*
X158390095Y-95516000D01*
X158485333Y-95468380D01*
X158723428Y-95468380D01*
X158818666Y-95516000D01*
X158866285Y-95563619D01*
X158913904Y-95658857D01*
X158913904Y-95754095D01*
X158866285Y-95896952D01*
X158294857Y-96468380D01*
X158913904Y-96468380D01*
%TO.C,C24*%
X166235142Y-79097142D02*
X166187523Y-79144761D01*
X166044666Y-79192380D01*
X165949428Y-79192380D01*
X165806571Y-79144761D01*
X165711333Y-79049523D01*
X165663714Y-78954285D01*
X165616095Y-78763809D01*
X165616095Y-78620952D01*
X165663714Y-78430476D01*
X165711333Y-78335238D01*
X165806571Y-78240000D01*
X165949428Y-78192380D01*
X166044666Y-78192380D01*
X166187523Y-78240000D01*
X166235142Y-78287619D01*
X166616095Y-78287619D02*
X166663714Y-78240000D01*
X166758952Y-78192380D01*
X166997047Y-78192380D01*
X167092285Y-78240000D01*
X167139904Y-78287619D01*
X167187523Y-78382857D01*
X167187523Y-78478095D01*
X167139904Y-78620952D01*
X166568476Y-79192380D01*
X167187523Y-79192380D01*
X168044666Y-78525714D02*
X168044666Y-79192380D01*
X167806571Y-78144761D02*
X167568476Y-78859047D01*
X168187523Y-78859047D01*
D11*
%TO.C,C3*%
X123089000Y-82604000D02*
X123089000Y-77396000D01*
X125009000Y-83889000D02*
X125009000Y-81040000D01*
X122329000Y-81229000D02*
X122329000Y-78771000D01*
X123689000Y-78960000D02*
X123689000Y-76811000D01*
X124889000Y-78960000D02*
X124889000Y-76150000D01*
X123529000Y-83055000D02*
X123529000Y-81040000D01*
X124689000Y-83774000D02*
X124689000Y-81040000D01*
X124489000Y-83686000D02*
X124489000Y-81040000D01*
X124849000Y-78960000D02*
X124849000Y-76165000D01*
X124329000Y-78960000D02*
X124329000Y-76394000D01*
X125209000Y-78960000D02*
X125209000Y-76053000D01*
X126050000Y-84076000D02*
X126050000Y-75924000D01*
X125089000Y-78960000D02*
X125089000Y-76086000D01*
X123169000Y-82697000D02*
X123169000Y-77303000D01*
X123889000Y-78960000D02*
X123889000Y-76662000D01*
X125329000Y-78960000D02*
X125329000Y-76024000D01*
X123809000Y-78960000D02*
X123809000Y-76720000D01*
X123809000Y-83280000D02*
X123809000Y-81040000D01*
X124129000Y-83493000D02*
X124129000Y-81040000D01*
X123649000Y-78960000D02*
X123649000Y-76844000D01*
X123209000Y-82741000D02*
X123209000Y-77259000D01*
X123289000Y-82826000D02*
X123289000Y-77174000D01*
X125169000Y-83936000D02*
X125169000Y-81040000D01*
X124769000Y-83805000D02*
X124769000Y-81040000D01*
X124529000Y-83704000D02*
X124529000Y-81040000D01*
X125730000Y-84048000D02*
X125730000Y-75952000D01*
X124289000Y-78960000D02*
X124289000Y-76416000D01*
X125610000Y-84030000D02*
X125610000Y-75970000D01*
X124329000Y-83606000D02*
X124329000Y-81040000D01*
X125249000Y-78960000D02*
X125249000Y-76043000D01*
X125049000Y-83902000D02*
X125049000Y-81040000D01*
X122609000Y-81890000D02*
X122609000Y-78110000D01*
X122169000Y-80533000D02*
X122169000Y-79467000D01*
X124249000Y-78960000D02*
X124249000Y-76438000D01*
X125650000Y-84037000D02*
X125650000Y-75963000D01*
X125009000Y-78960000D02*
X125009000Y-76111000D01*
X124249000Y-83562000D02*
X124249000Y-81040000D01*
X124209000Y-78960000D02*
X124209000Y-76460000D01*
X124929000Y-83863000D02*
X124929000Y-81040000D01*
X125329000Y-83976000D02*
X125329000Y-81040000D01*
X130659698Y-82315000D02*
X129859698Y-82315000D01*
X123689000Y-83189000D02*
X123689000Y-81040000D01*
X122929000Y-82400000D02*
X122929000Y-77600000D01*
X123529000Y-78960000D02*
X123529000Y-76945000D01*
X123369000Y-82907000D02*
X123369000Y-77093000D01*
X124089000Y-83469000D02*
X124089000Y-81040000D01*
X122449000Y-81552000D02*
X122449000Y-78448000D01*
X125409000Y-83994000D02*
X125409000Y-81040000D01*
X123929000Y-83365000D02*
X123929000Y-81040000D01*
X124649000Y-83757000D02*
X124649000Y-81040000D01*
X124649000Y-78960000D02*
X124649000Y-76243000D01*
X124209000Y-83540000D02*
X124209000Y-81040000D01*
X125890000Y-84065000D02*
X125890000Y-75935000D01*
X123329000Y-82867000D02*
X123329000Y-77133000D01*
X122289000Y-81098000D02*
X122289000Y-78902000D01*
X122409000Y-81453000D02*
X122409000Y-78547000D01*
X125930000Y-84068000D02*
X125930000Y-75932000D01*
X124809000Y-78960000D02*
X124809000Y-76179000D01*
X122369000Y-81346000D02*
X122369000Y-78654000D01*
X124009000Y-83418000D02*
X124009000Y-81040000D01*
X125529000Y-78960000D02*
X125529000Y-75983000D01*
X122209000Y-80768000D02*
X122209000Y-79232000D01*
X123849000Y-83309000D02*
X123849000Y-81040000D01*
X124289000Y-83584000D02*
X124289000Y-81040000D01*
X123729000Y-83220000D02*
X123729000Y-81040000D01*
X123489000Y-78960000D02*
X123489000Y-76981000D01*
X125489000Y-84010000D02*
X125489000Y-81040000D01*
X122529000Y-81731000D02*
X122529000Y-78269000D01*
X125289000Y-78960000D02*
X125289000Y-76033000D01*
X124729000Y-78960000D02*
X124729000Y-76210000D01*
X123889000Y-83338000D02*
X123889000Y-81040000D01*
X125529000Y-84017000D02*
X125529000Y-81040000D01*
X125089000Y-83914000D02*
X125089000Y-81040000D01*
X125049000Y-78960000D02*
X125049000Y-76098000D01*
X124609000Y-78960000D02*
X124609000Y-76260000D01*
X125369000Y-83985000D02*
X125369000Y-81040000D01*
X124089000Y-78960000D02*
X124089000Y-76531000D01*
X126250000Y-84080000D02*
X126250000Y-75920000D01*
X123769000Y-83250000D02*
X123769000Y-81040000D01*
X126090000Y-84077000D02*
X126090000Y-75923000D01*
X125129000Y-78960000D02*
X125129000Y-76075000D01*
X123569000Y-78960000D02*
X123569000Y-76910000D01*
X124569000Y-83722000D02*
X124569000Y-81040000D01*
X125449000Y-84002000D02*
X125449000Y-81040000D01*
X124769000Y-78960000D02*
X124769000Y-76195000D01*
X124489000Y-78960000D02*
X124489000Y-76314000D01*
X123729000Y-78960000D02*
X123729000Y-76780000D01*
X125770000Y-84052000D02*
X125770000Y-75948000D01*
X124929000Y-78960000D02*
X124929000Y-76137000D01*
X125409000Y-78960000D02*
X125409000Y-76006000D01*
X125810000Y-84057000D02*
X125810000Y-75943000D01*
X122969000Y-82454000D02*
X122969000Y-77546000D01*
X125129000Y-83925000D02*
X125129000Y-81040000D01*
X122769000Y-82166000D02*
X122769000Y-77834000D01*
X124049000Y-83444000D02*
X124049000Y-81040000D01*
X124169000Y-78960000D02*
X124169000Y-76483000D01*
X123609000Y-78960000D02*
X123609000Y-76876000D01*
X124369000Y-83627000D02*
X124369000Y-81040000D01*
X122569000Y-81813000D02*
X122569000Y-78187000D01*
X125449000Y-78960000D02*
X125449000Y-75998000D01*
X123249000Y-82784000D02*
X123249000Y-77216000D01*
X123009000Y-82505000D02*
X123009000Y-77495000D01*
X124049000Y-78960000D02*
X124049000Y-76556000D01*
X124689000Y-78960000D02*
X124689000Y-76226000D01*
X123409000Y-82945000D02*
X123409000Y-77055000D01*
X124449000Y-78960000D02*
X124449000Y-76334000D01*
X125369000Y-78960000D02*
X125369000Y-76015000D01*
X124409000Y-83647000D02*
X124409000Y-81040000D01*
X126210000Y-84080000D02*
X126210000Y-75920000D01*
X124009000Y-78960000D02*
X124009000Y-76582000D01*
X124369000Y-78960000D02*
X124369000Y-76373000D01*
X122889000Y-82345000D02*
X122889000Y-77655000D01*
X126010000Y-84074000D02*
X126010000Y-75926000D01*
X122649000Y-81964000D02*
X122649000Y-78036000D01*
X123649000Y-83156000D02*
X123649000Y-81040000D01*
X125690000Y-84042000D02*
X125690000Y-75958000D01*
X124409000Y-78960000D02*
X124409000Y-76353000D01*
X125209000Y-83947000D02*
X125209000Y-81040000D01*
X123049000Y-82556000D02*
X123049000Y-77444000D01*
X122249000Y-80948000D02*
X122249000Y-79052000D01*
X125249000Y-83957000D02*
X125249000Y-81040000D01*
X123609000Y-83124000D02*
X123609000Y-81040000D01*
X124529000Y-78960000D02*
X124529000Y-76296000D01*
X126130000Y-84079000D02*
X126130000Y-75921000D01*
X123929000Y-78960000D02*
X123929000Y-76635000D01*
X124969000Y-83877000D02*
X124969000Y-81040000D01*
X125970000Y-84071000D02*
X125970000Y-75929000D01*
X122809000Y-82228000D02*
X122809000Y-77772000D01*
X123969000Y-78960000D02*
X123969000Y-76608000D01*
X123129000Y-82651000D02*
X123129000Y-77349000D01*
X125169000Y-78960000D02*
X125169000Y-76064000D01*
X123569000Y-83090000D02*
X123569000Y-81040000D01*
X122489000Y-81645000D02*
X122489000Y-78355000D01*
X122729000Y-82102000D02*
X122729000Y-77898000D01*
X123849000Y-78960000D02*
X123849000Y-76691000D01*
X124609000Y-83740000D02*
X124609000Y-81040000D01*
X125850000Y-84061000D02*
X125850000Y-75939000D01*
X124729000Y-83790000D02*
X124729000Y-81040000D01*
X124569000Y-78960000D02*
X124569000Y-76278000D01*
X123449000Y-82983000D02*
X123449000Y-77017000D01*
X123489000Y-83019000D02*
X123489000Y-81040000D01*
X124169000Y-83517000D02*
X124169000Y-81040000D01*
X122689000Y-82034000D02*
X122689000Y-77966000D01*
X130259698Y-82715000D02*
X130259698Y-81915000D01*
X123769000Y-78960000D02*
X123769000Y-76750000D01*
X124969000Y-78960000D02*
X124969000Y-76123000D01*
X125289000Y-83967000D02*
X125289000Y-81040000D01*
X126170000Y-84080000D02*
X126170000Y-75920000D01*
X124809000Y-83821000D02*
X124809000Y-81040000D01*
X125570000Y-84024000D02*
X125570000Y-75976000D01*
X124849000Y-83835000D02*
X124849000Y-81040000D01*
X124449000Y-83666000D02*
X124449000Y-81040000D01*
X125489000Y-78960000D02*
X125489000Y-75990000D01*
X124129000Y-78960000D02*
X124129000Y-76507000D01*
X122849000Y-82287000D02*
X122849000Y-77713000D01*
X124889000Y-83850000D02*
X124889000Y-81040000D01*
X123969000Y-83392000D02*
X123969000Y-81040000D01*
X130370000Y-80000000D02*
G75*
G03*
X130370000Y-80000000I-4120000J0D01*
G01*
%TO.C,C7*%
X135117000Y-89171000D02*
X129383000Y-89171000D01*
X136040000Y-87771000D02*
X133290000Y-87771000D01*
X133479000Y-90171000D02*
X131021000Y-90171000D01*
X131210000Y-87491000D02*
X128361000Y-87491000D01*
X136315000Y-86610000D02*
X128185000Y-86610000D01*
X135936000Y-88011000D02*
X133290000Y-88011000D01*
X131210000Y-88411000D02*
X128781000Y-88411000D01*
X135916000Y-88051000D02*
X133290000Y-88051000D01*
X131210000Y-87131000D02*
X128265000Y-87131000D01*
X134537000Y-89651000D02*
X129963000Y-89651000D01*
X131210000Y-87371000D02*
X128325000Y-87371000D01*
X135972000Y-87931000D02*
X133290000Y-87931000D01*
X136164000Y-87411000D02*
X133290000Y-87411000D01*
X135812000Y-88251000D02*
X133290000Y-88251000D01*
X135990000Y-87891000D02*
X133290000Y-87891000D01*
X135743000Y-88371000D02*
X133290000Y-88371000D01*
X134214000Y-89851000D02*
X130286000Y-89851000D01*
X131210000Y-87251000D02*
X128293000Y-87251000D01*
X136055000Y-87731000D02*
X133290000Y-87731000D01*
X135034000Y-89251000D02*
X129466000Y-89251000D01*
X135269000Y-89011000D02*
X133290000Y-89011000D01*
X133198000Y-90251000D02*
X131302000Y-90251000D01*
X136139000Y-87491000D02*
X133290000Y-87491000D01*
X136235000Y-87131000D02*
X133290000Y-87131000D01*
X134755000Y-89491000D02*
X129745000Y-89491000D01*
X131210000Y-88651000D02*
X128941000Y-88651000D01*
X136113000Y-87571000D02*
X133290000Y-87571000D01*
X131210000Y-87171000D02*
X128274000Y-87171000D01*
X131210000Y-87531000D02*
X128373000Y-87531000D01*
X136330000Y-86330000D02*
X128170000Y-86330000D01*
X134650000Y-89571000D02*
X129850000Y-89571000D01*
X131210000Y-87971000D02*
X128546000Y-87971000D01*
X131210000Y-86971000D02*
X128233000Y-86971000D01*
X131210000Y-88051000D02*
X128584000Y-88051000D01*
X134140000Y-89891000D02*
X130360000Y-89891000D01*
X135195000Y-89091000D02*
X129305000Y-89091000D01*
X134352000Y-89771000D02*
X130148000Y-89771000D01*
X136311000Y-86650000D02*
X128189000Y-86650000D01*
X134478000Y-89691000D02*
X130022000Y-89691000D01*
X136175000Y-87371000D02*
X133290000Y-87371000D01*
X135642000Y-88531000D02*
X133290000Y-88531000D01*
X133981000Y-89971000D02*
X130519000Y-89971000D01*
X131210000Y-88971000D02*
X129195000Y-88971000D01*
X131210000Y-87291000D02*
X128303000Y-87291000D01*
X136252000Y-87051000D02*
X133290000Y-87051000D01*
X136207000Y-87251000D02*
X133290000Y-87251000D01*
X134284000Y-89811000D02*
X130216000Y-89811000D01*
X135406000Y-88851000D02*
X133290000Y-88851000D01*
X135856000Y-88171000D02*
X133290000Y-88171000D01*
X131210000Y-88011000D02*
X128564000Y-88011000D01*
X131210000Y-88691000D02*
X128970000Y-88691000D01*
X136324000Y-86490000D02*
X128176000Y-86490000D01*
X135719000Y-88411000D02*
X133290000Y-88411000D01*
X131210000Y-88851000D02*
X129094000Y-88851000D01*
X135076000Y-89211000D02*
X129424000Y-89211000D01*
X136292000Y-86810000D02*
X128208000Y-86810000D01*
X131210000Y-87571000D02*
X128387000Y-87571000D01*
X133802000Y-90051000D02*
X130698000Y-90051000D01*
X131210000Y-87411000D02*
X128336000Y-87411000D01*
X131210000Y-87451000D02*
X128348000Y-87451000D01*
X135954000Y-87971000D02*
X133290000Y-87971000D01*
X134854000Y-89411000D02*
X129646000Y-89411000D01*
X131210000Y-87931000D02*
X128528000Y-87931000D01*
X134565000Y-81840302D02*
X134565000Y-82640302D01*
X136330000Y-86250000D02*
X128170000Y-86250000D01*
X131210000Y-88451000D02*
X128806000Y-88451000D01*
X136330000Y-86290000D02*
X128170000Y-86290000D01*
X131210000Y-89011000D02*
X129231000Y-89011000D01*
X136287000Y-86850000D02*
X128213000Y-86850000D01*
X131210000Y-88891000D02*
X129126000Y-88891000D01*
X131210000Y-88531000D02*
X128858000Y-88531000D01*
X134416000Y-89731000D02*
X130084000Y-89731000D01*
X135834000Y-88211000D02*
X133290000Y-88211000D01*
X131210000Y-87891000D02*
X128510000Y-87891000D01*
X131210000Y-88771000D02*
X129030000Y-88771000D01*
X132783000Y-90331000D02*
X131717000Y-90331000D01*
X131210000Y-87051000D02*
X128248000Y-87051000D01*
X136226000Y-87171000D02*
X133290000Y-87171000D01*
X134947000Y-89331000D02*
X129553000Y-89331000D01*
X131210000Y-88731000D02*
X129000000Y-88731000D01*
X131210000Y-88811000D02*
X129061000Y-88811000D01*
X133348000Y-90211000D02*
X131152000Y-90211000D01*
X135877000Y-88131000D02*
X133290000Y-88131000D01*
X136152000Y-87451000D02*
X133290000Y-87451000D01*
X133596000Y-90131000D02*
X130904000Y-90131000D01*
X131210000Y-88571000D02*
X128885000Y-88571000D01*
X135615000Y-88571000D02*
X133290000Y-88571000D01*
X135668000Y-88491000D02*
X133290000Y-88491000D01*
X134063000Y-89931000D02*
X130437000Y-89931000D01*
X135588000Y-88611000D02*
X133290000Y-88611000D01*
X131210000Y-87851000D02*
X128493000Y-87851000D01*
X134704000Y-89531000D02*
X129796000Y-89531000D01*
X131210000Y-88331000D02*
X128733000Y-88331000D01*
X135897000Y-88091000D02*
X133290000Y-88091000D01*
X136327000Y-86410000D02*
X128173000Y-86410000D01*
X134901000Y-89371000D02*
X129599000Y-89371000D01*
X131210000Y-87611000D02*
X128400000Y-87611000D01*
X131210000Y-87331000D02*
X128314000Y-87331000D01*
X136007000Y-87851000D02*
X133290000Y-87851000D01*
X136321000Y-86530000D02*
X128179000Y-86530000D01*
X135790000Y-88291000D02*
X133290000Y-88291000D01*
X134965000Y-82240302D02*
X134165000Y-82240302D01*
X134595000Y-89611000D02*
X129905000Y-89611000D01*
X135500000Y-88731000D02*
X133290000Y-88731000D01*
X135157000Y-89131000D02*
X129343000Y-89131000D01*
X131210000Y-87011000D02*
X128240000Y-87011000D01*
X131210000Y-88371000D02*
X128757000Y-88371000D01*
X131210000Y-88291000D02*
X128710000Y-88291000D01*
X136244000Y-87091000D02*
X133290000Y-87091000D01*
X133018000Y-90291000D02*
X131482000Y-90291000D01*
X131210000Y-87811000D02*
X128476000Y-87811000D01*
X136329000Y-86370000D02*
X128171000Y-86370000D01*
X134806000Y-89451000D02*
X129694000Y-89451000D01*
X135767000Y-88331000D02*
X133290000Y-88331000D01*
X135530000Y-88691000D02*
X133290000Y-88691000D01*
X136024000Y-87811000D02*
X133290000Y-87811000D01*
X131210000Y-88171000D02*
X128644000Y-88171000D01*
X131210000Y-87771000D02*
X128460000Y-87771000D01*
X136100000Y-87611000D02*
X133290000Y-87611000D01*
X131210000Y-87731000D02*
X128445000Y-87731000D01*
X131210000Y-88131000D02*
X128623000Y-88131000D01*
X136274000Y-86930000D02*
X128226000Y-86930000D01*
X131210000Y-88251000D02*
X128688000Y-88251000D01*
X135470000Y-88771000D02*
X133290000Y-88771000D01*
X136302000Y-86730000D02*
X128198000Y-86730000D01*
X131210000Y-87211000D02*
X128283000Y-87211000D01*
X136217000Y-87211000D02*
X133290000Y-87211000D01*
X131210000Y-88491000D02*
X128832000Y-88491000D01*
X134991000Y-89291000D02*
X129509000Y-89291000D01*
X136298000Y-86770000D02*
X128202000Y-86770000D01*
X131210000Y-87651000D02*
X128415000Y-87651000D01*
X135340000Y-88931000D02*
X133290000Y-88931000D01*
X131210000Y-87091000D02*
X128256000Y-87091000D01*
X136085000Y-87651000D02*
X133290000Y-87651000D01*
X136307000Y-86690000D02*
X128193000Y-86690000D01*
X135694000Y-88451000D02*
X133290000Y-88451000D01*
X133703000Y-90091000D02*
X130797000Y-90091000D01*
X136326000Y-86450000D02*
X128174000Y-86450000D01*
X133895000Y-90011000D02*
X130605000Y-90011000D01*
X136186000Y-87331000D02*
X133290000Y-87331000D01*
X136071000Y-87691000D02*
X133290000Y-87691000D01*
X131210000Y-87691000D02*
X128429000Y-87691000D01*
X136127000Y-87531000D02*
X133290000Y-87531000D01*
X131210000Y-88091000D02*
X128603000Y-88091000D01*
X131210000Y-88611000D02*
X128912000Y-88611000D01*
X131210000Y-88931000D02*
X129160000Y-88931000D01*
X136197000Y-87291000D02*
X133290000Y-87291000D01*
X135559000Y-88651000D02*
X133290000Y-88651000D01*
X135374000Y-88891000D02*
X133290000Y-88891000D01*
X136260000Y-87011000D02*
X133290000Y-87011000D01*
X135439000Y-88811000D02*
X133290000Y-88811000D01*
X136280000Y-86890000D02*
X128220000Y-86890000D01*
X135233000Y-89051000D02*
X129267000Y-89051000D01*
X136267000Y-86971000D02*
X133290000Y-86971000D01*
X131210000Y-88211000D02*
X128666000Y-88211000D01*
X136318000Y-86570000D02*
X128182000Y-86570000D01*
X135305000Y-88971000D02*
X133290000Y-88971000D01*
X136370000Y-86250000D02*
G75*
G03*
X136370000Y-86250000I-4120000J0D01*
G01*
%TO.C,C8*%
X122289000Y-93598000D02*
X122289000Y-91402000D01*
X124369000Y-91460000D02*
X124369000Y-88873000D01*
X123529000Y-95555000D02*
X123529000Y-93540000D01*
X124289000Y-91460000D02*
X124289000Y-88916000D01*
X123689000Y-95689000D02*
X123689000Y-93540000D01*
X124729000Y-91460000D02*
X124729000Y-88710000D01*
X123889000Y-95838000D02*
X123889000Y-93540000D01*
X125209000Y-96447000D02*
X125209000Y-93540000D01*
X122969000Y-94954000D02*
X122969000Y-90046000D01*
X122889000Y-94845000D02*
X122889000Y-90155000D01*
X125970000Y-96571000D02*
X125970000Y-88429000D01*
X122809000Y-94728000D02*
X122809000Y-90272000D01*
X125049000Y-96402000D02*
X125049000Y-93540000D01*
X125249000Y-91460000D02*
X125249000Y-88543000D01*
X123809000Y-95780000D02*
X123809000Y-93540000D01*
X123369000Y-95407000D02*
X123369000Y-89593000D01*
X125249000Y-96457000D02*
X125249000Y-93540000D01*
X122929000Y-94900000D02*
X122929000Y-90100000D01*
X124089000Y-91460000D02*
X124089000Y-89031000D01*
X125489000Y-91460000D02*
X125489000Y-88490000D01*
X124689000Y-91460000D02*
X124689000Y-88726000D01*
X125049000Y-91460000D02*
X125049000Y-88598000D01*
X125329000Y-96476000D02*
X125329000Y-93540000D01*
X124769000Y-91460000D02*
X124769000Y-88695000D01*
X125329000Y-91460000D02*
X125329000Y-88524000D01*
X124529000Y-96204000D02*
X124529000Y-93540000D01*
X122449000Y-94052000D02*
X122449000Y-90948000D01*
X124809000Y-91460000D02*
X124809000Y-88679000D01*
X122769000Y-94666000D02*
X122769000Y-90334000D01*
X124449000Y-91460000D02*
X124449000Y-88834000D01*
X125169000Y-96436000D02*
X125169000Y-93540000D01*
X125209000Y-91460000D02*
X125209000Y-88553000D01*
X123329000Y-95367000D02*
X123329000Y-89633000D01*
X122729000Y-94602000D02*
X122729000Y-90398000D01*
X124969000Y-91460000D02*
X124969000Y-88623000D01*
X124049000Y-91460000D02*
X124049000Y-89056000D01*
X125129000Y-91460000D02*
X125129000Y-88575000D01*
X122369000Y-93846000D02*
X122369000Y-91154000D01*
X126130000Y-96579000D02*
X126130000Y-88421000D01*
X123769000Y-91460000D02*
X123769000Y-89250000D01*
X123169000Y-95197000D02*
X123169000Y-89803000D01*
X124049000Y-95944000D02*
X124049000Y-93540000D01*
X125529000Y-91460000D02*
X125529000Y-88483000D01*
X124849000Y-96335000D02*
X124849000Y-93540000D01*
X124889000Y-91460000D02*
X124889000Y-88650000D01*
X123889000Y-91460000D02*
X123889000Y-89162000D01*
X125610000Y-96530000D02*
X125610000Y-88470000D01*
X122409000Y-93953000D02*
X122409000Y-91047000D01*
X123249000Y-95284000D02*
X123249000Y-89716000D01*
X124929000Y-91460000D02*
X124929000Y-88637000D01*
X124009000Y-95918000D02*
X124009000Y-93540000D01*
X123489000Y-91460000D02*
X123489000Y-89481000D01*
X123849000Y-95809000D02*
X123849000Y-93540000D01*
X125409000Y-91460000D02*
X125409000Y-88506000D01*
X122569000Y-94313000D02*
X122569000Y-90687000D01*
X123729000Y-91460000D02*
X123729000Y-89280000D01*
X123089000Y-95104000D02*
X123089000Y-89896000D01*
X123209000Y-95241000D02*
X123209000Y-89759000D01*
X124169000Y-91460000D02*
X124169000Y-88983000D01*
X124569000Y-91460000D02*
X124569000Y-88778000D01*
X123289000Y-95326000D02*
X123289000Y-89674000D01*
X124809000Y-96321000D02*
X124809000Y-93540000D01*
X122329000Y-93729000D02*
X122329000Y-91271000D01*
X122489000Y-94145000D02*
X122489000Y-90855000D01*
X123969000Y-91460000D02*
X123969000Y-89108000D01*
X124089000Y-95969000D02*
X124089000Y-93540000D01*
X125449000Y-96502000D02*
X125449000Y-93540000D01*
X125529000Y-96517000D02*
X125529000Y-93540000D01*
X125730000Y-96548000D02*
X125730000Y-88452000D01*
X125930000Y-96568000D02*
X125930000Y-88432000D01*
X122249000Y-93448000D02*
X122249000Y-91552000D01*
X124649000Y-96257000D02*
X124649000Y-93540000D01*
X123009000Y-95005000D02*
X123009000Y-89995000D01*
X124129000Y-91460000D02*
X124129000Y-89007000D01*
X122609000Y-94390000D02*
X122609000Y-90610000D01*
X125089000Y-96414000D02*
X125089000Y-93540000D01*
X122689000Y-94534000D02*
X122689000Y-90466000D01*
X124769000Y-96305000D02*
X124769000Y-93540000D01*
X126010000Y-96574000D02*
X126010000Y-88426000D01*
X125369000Y-96485000D02*
X125369000Y-93540000D01*
X126170000Y-96580000D02*
X126170000Y-88420000D01*
X124849000Y-91460000D02*
X124849000Y-88665000D01*
X125289000Y-91460000D02*
X125289000Y-88533000D01*
X123689000Y-91460000D02*
X123689000Y-89311000D01*
X124209000Y-96040000D02*
X124209000Y-93540000D01*
X123489000Y-95519000D02*
X123489000Y-93540000D01*
X125089000Y-91460000D02*
X125089000Y-88586000D01*
X124969000Y-96377000D02*
X124969000Y-93540000D01*
X123129000Y-95151000D02*
X123129000Y-89849000D01*
X123569000Y-95590000D02*
X123569000Y-93540000D01*
X124649000Y-91460000D02*
X124649000Y-88743000D01*
X124489000Y-96186000D02*
X124489000Y-93540000D01*
X122849000Y-94787000D02*
X122849000Y-90213000D01*
X123569000Y-91460000D02*
X123569000Y-89410000D01*
X124609000Y-96240000D02*
X124609000Y-93540000D01*
X123609000Y-91460000D02*
X123609000Y-89376000D01*
X123729000Y-95720000D02*
X123729000Y-93540000D01*
X123649000Y-91460000D02*
X123649000Y-89344000D01*
X123849000Y-91460000D02*
X123849000Y-89191000D01*
X124889000Y-96350000D02*
X124889000Y-93540000D01*
X122529000Y-94231000D02*
X122529000Y-90769000D01*
X125690000Y-96542000D02*
X125690000Y-88458000D01*
X124009000Y-91460000D02*
X124009000Y-89082000D01*
X124609000Y-91460000D02*
X124609000Y-88760000D01*
X124329000Y-91460000D02*
X124329000Y-88894000D01*
X123529000Y-91460000D02*
X123529000Y-89445000D01*
X126250000Y-96580000D02*
X126250000Y-88420000D01*
X124329000Y-96106000D02*
X124329000Y-93540000D01*
X130659698Y-94815000D02*
X129859698Y-94815000D01*
X124409000Y-91460000D02*
X124409000Y-88853000D01*
X124169000Y-96017000D02*
X124169000Y-93540000D01*
X124129000Y-95993000D02*
X124129000Y-93540000D01*
X123409000Y-95445000D02*
X123409000Y-89555000D01*
X124569000Y-96222000D02*
X124569000Y-93540000D01*
X123969000Y-95892000D02*
X123969000Y-93540000D01*
X125009000Y-96389000D02*
X125009000Y-93540000D01*
X124369000Y-96127000D02*
X124369000Y-93540000D01*
X125770000Y-96552000D02*
X125770000Y-88448000D01*
X126090000Y-96577000D02*
X126090000Y-88423000D01*
X125369000Y-91460000D02*
X125369000Y-88515000D01*
X125570000Y-96524000D02*
X125570000Y-88476000D01*
X125009000Y-91460000D02*
X125009000Y-88611000D01*
X123769000Y-95750000D02*
X123769000Y-93540000D01*
X125169000Y-91460000D02*
X125169000Y-88564000D01*
X124689000Y-96274000D02*
X124689000Y-93540000D01*
X125289000Y-96467000D02*
X125289000Y-93540000D01*
X124449000Y-96166000D02*
X124449000Y-93540000D01*
X130259698Y-95215000D02*
X130259698Y-94415000D01*
X123929000Y-95865000D02*
X123929000Y-93540000D01*
X124209000Y-91460000D02*
X124209000Y-88960000D01*
X123809000Y-91460000D02*
X123809000Y-89220000D01*
X122169000Y-93033000D02*
X122169000Y-91967000D01*
X125489000Y-96510000D02*
X125489000Y-93540000D01*
X123609000Y-95624000D02*
X123609000Y-93540000D01*
X124249000Y-96062000D02*
X124249000Y-93540000D01*
X125850000Y-96561000D02*
X125850000Y-88439000D01*
X125650000Y-96537000D02*
X125650000Y-88463000D01*
X126050000Y-96576000D02*
X126050000Y-88424000D01*
X125810000Y-96557000D02*
X125810000Y-88443000D01*
X125890000Y-96565000D02*
X125890000Y-88435000D01*
X124249000Y-91460000D02*
X124249000Y-88938000D01*
X123649000Y-95656000D02*
X123649000Y-93540000D01*
X123049000Y-95056000D02*
X123049000Y-89944000D01*
X126210000Y-96580000D02*
X126210000Y-88420000D01*
X122649000Y-94464000D02*
X122649000Y-90536000D01*
X124529000Y-91460000D02*
X124529000Y-88796000D01*
X122209000Y-93268000D02*
X122209000Y-91732000D01*
X125449000Y-91460000D02*
X125449000Y-88498000D01*
X124289000Y-96084000D02*
X124289000Y-93540000D01*
X123929000Y-91460000D02*
X123929000Y-89135000D01*
X125409000Y-96494000D02*
X125409000Y-93540000D01*
X124929000Y-96363000D02*
X124929000Y-93540000D01*
X124489000Y-91460000D02*
X124489000Y-88814000D01*
X124409000Y-96147000D02*
X124409000Y-93540000D01*
X123449000Y-95483000D02*
X123449000Y-89517000D01*
X124729000Y-96290000D02*
X124729000Y-93540000D01*
X125129000Y-96425000D02*
X125129000Y-93540000D01*
X130370000Y-92500000D02*
G75*
G03*
X130370000Y-92500000I-4120000J0D01*
G01*
%TO.C,C14*%
X146220000Y-60630000D02*
X138780000Y-60630000D01*
X138780000Y-63370000D02*
X138780000Y-60630000D01*
X146220000Y-63370000D02*
X146220000Y-60630000D01*
X146220000Y-63370000D02*
X138780000Y-63370000D01*
%TO.C,C15*%
X146220000Y-92630000D02*
X138780000Y-92630000D01*
X138780000Y-95370000D02*
X138780000Y-92630000D01*
X146220000Y-95370000D02*
X146220000Y-92630000D01*
X146220000Y-95370000D02*
X138780000Y-95370000D01*
%TO.C,C22*%
X153780000Y-75380000D02*
X161220000Y-75380000D01*
X161220000Y-75380000D02*
X161220000Y-78120000D01*
X153780000Y-75380000D02*
X153780000Y-78120000D01*
X153780000Y-78120000D02*
X161220000Y-78120000D01*
%TO.C,J3*%
X135910000Y-60940000D02*
X134410000Y-60940000D01*
X133430000Y-60810000D02*
X131620000Y-60810000D01*
X131620000Y-68280000D02*
X131620000Y-68150000D01*
X129090000Y-60680000D02*
X129090000Y-68280000D01*
X133430000Y-60680000D02*
X133430000Y-60810000D01*
X134410000Y-68280000D02*
X134410000Y-68020000D01*
X131620000Y-60680000D02*
X129090000Y-60680000D01*
X131620000Y-68150000D02*
X133430000Y-68150000D01*
X134410000Y-60680000D02*
X133430000Y-60680000D01*
X129090000Y-68280000D02*
X131620000Y-68280000D01*
X133430000Y-68280000D02*
X134410000Y-68280000D01*
X131620000Y-60810000D02*
X131620000Y-60680000D01*
X134410000Y-60940000D02*
X134410000Y-60680000D01*
X133430000Y-68150000D02*
X133430000Y-68280000D01*
X134410000Y-68020000D02*
X135910000Y-68020000D01*
X131200000Y-68580000D02*
X128790000Y-68580000D01*
X128790000Y-68580000D02*
X128790000Y-66170000D01*
X135910000Y-68020000D02*
X135910000Y-60940000D01*
%TO.C,J2*%
X117892500Y-101000000D02*
X117892500Y-109800000D01*
X115192500Y-95100000D02*
X117892500Y-95100000D01*
X109542500Y-94900000D02*
X108492500Y-94900000D01*
X117892500Y-95100000D02*
X117892500Y-97000000D01*
X108692500Y-95100000D02*
X111292500Y-95100000D01*
X108492500Y-95950000D02*
X108492500Y-94900000D01*
X117892500Y-109800000D02*
X108692500Y-109800000D01*
X108692500Y-109800000D02*
X108692500Y-95100000D01*
%TO.C,J4*%
X151280000Y-54880000D02*
X151150000Y-54880000D01*
X143680000Y-54880000D02*
X143680000Y-57410000D01*
X143680000Y-53070000D02*
X143810000Y-53070000D01*
X151580000Y-55300000D02*
X151580000Y-57710000D01*
X143940000Y-52090000D02*
X143680000Y-52090000D01*
X151280000Y-53070000D02*
X151280000Y-52090000D01*
X151150000Y-53070000D02*
X151280000Y-53070000D01*
X151020000Y-52090000D02*
X151020000Y-50590000D01*
X151280000Y-57410000D02*
X151280000Y-54880000D01*
X151580000Y-57710000D02*
X149170000Y-57710000D01*
X143940000Y-50590000D02*
X143940000Y-52090000D01*
X151280000Y-52090000D02*
X151020000Y-52090000D01*
X143810000Y-53070000D02*
X143810000Y-54880000D01*
X151150000Y-54880000D02*
X151150000Y-53070000D01*
X143680000Y-52090000D02*
X143680000Y-53070000D01*
X143810000Y-54880000D02*
X143680000Y-54880000D01*
X151020000Y-50590000D02*
X143940000Y-50590000D01*
X143680000Y-57410000D02*
X151280000Y-57410000D01*
%TO.C,J5*%
X151320000Y-105910000D02*
X151320000Y-104930000D01*
X151320000Y-104930000D02*
X151190000Y-104930000D01*
X143420000Y-100290000D02*
X145830000Y-100290000D01*
X143420000Y-102700000D02*
X143420000Y-100290000D01*
X143980000Y-107410000D02*
X151060000Y-107410000D01*
X151060000Y-105910000D02*
X151320000Y-105910000D01*
X143980000Y-105910000D02*
X143980000Y-107410000D01*
X151060000Y-107410000D02*
X151060000Y-105910000D01*
X151190000Y-104930000D02*
X151190000Y-103120000D01*
X143720000Y-103120000D02*
X143850000Y-103120000D01*
X143720000Y-105910000D02*
X143980000Y-105910000D01*
X143850000Y-103120000D02*
X143850000Y-104930000D01*
X151320000Y-100590000D02*
X143720000Y-100590000D01*
X143850000Y-104930000D02*
X143720000Y-104930000D01*
X143720000Y-100590000D02*
X143720000Y-103120000D01*
X151190000Y-103120000D02*
X151320000Y-103120000D01*
X143720000Y-104930000D02*
X143720000Y-105910000D01*
X151320000Y-103120000D02*
X151320000Y-100590000D01*
%TO.C,L1*%
X156668000Y-65168585D02*
G75*
G03*
X159308000Y-65168585I1320000J-4427415D01*
G01*
%TO.C,L2*%
X164955415Y-87072000D02*
G75*
G03*
X164955415Y-89712000I-4427415J-1320000D01*
G01*
%TO.C,RV1*%
X120420000Y-72070000D02*
X108080000Y-72070000D01*
X101080000Y-66120000D02*
X101080000Y-59879000D01*
X120420000Y-72070000D02*
X120420000Y-53930000D01*
X108080000Y-59380000D02*
X101080000Y-59380000D01*
X120420000Y-53930000D02*
X108080000Y-53930000D01*
X101080000Y-59879000D02*
X91080000Y-59879000D01*
X101080000Y-66620000D02*
X101080000Y-59380000D01*
X108080000Y-66620000D02*
X108080000Y-59380000D01*
X108080000Y-66620000D02*
X101080000Y-66620000D01*
X91080000Y-66120000D02*
X91080000Y-59879000D01*
X101080000Y-66120000D02*
X91080000Y-66120000D01*
X108080000Y-72070000D02*
X108080000Y-53930000D01*
%TO.C,U1*%
X140310000Y-90690000D02*
X144810000Y-90690000D01*
X140310000Y-65170000D02*
X140310000Y-90690000D01*
X144810000Y-90690000D02*
X144810000Y-65170000D01*
X144810000Y-65170000D02*
X143560000Y-65170000D01*
X141560000Y-65170000D02*
X140310000Y-65170000D01*
X141560000Y-65170000D02*
G75*
G03*
X143560000Y-65170000I1000000J0D01*
G01*
%TO.C,C2*%
X131249000Y-72710000D02*
X131249000Y-69793000D01*
X132170000Y-77830000D02*
X132170000Y-69670000D01*
X130769000Y-77555000D02*
X130769000Y-74790000D01*
X132250000Y-77830000D02*
X132250000Y-69670000D01*
X129609000Y-76874000D02*
X129609000Y-74790000D01*
X131209000Y-72710000D02*
X131209000Y-69803000D01*
X130969000Y-77627000D02*
X130969000Y-74790000D01*
X128289000Y-74848000D02*
X128289000Y-72652000D01*
X128449000Y-75302000D02*
X128449000Y-72198000D01*
X130169000Y-72710000D02*
X130169000Y-70233000D01*
X130689000Y-77524000D02*
X130689000Y-74790000D01*
X128729000Y-75852000D02*
X128729000Y-71648000D01*
X128689000Y-75784000D02*
X128689000Y-71716000D01*
X131169000Y-77686000D02*
X131169000Y-74790000D01*
X129649000Y-76906000D02*
X129649000Y-74790000D01*
X128529000Y-75481000D02*
X128529000Y-72019000D01*
X131890000Y-77815000D02*
X131890000Y-69685000D01*
X128809000Y-75978000D02*
X128809000Y-71522000D01*
X132050000Y-77826000D02*
X132050000Y-69674000D01*
X130929000Y-77613000D02*
X130929000Y-74790000D01*
X130649000Y-72710000D02*
X130649000Y-69993000D01*
X131570000Y-77774000D02*
X131570000Y-69726000D01*
X131009000Y-72710000D02*
X131009000Y-69861000D01*
X130929000Y-72710000D02*
X130929000Y-69887000D01*
X131650000Y-77787000D02*
X131650000Y-69713000D01*
X129249000Y-76534000D02*
X129249000Y-70966000D01*
X130129000Y-72710000D02*
X130129000Y-70257000D01*
X129849000Y-77059000D02*
X129849000Y-74790000D01*
X131049000Y-72710000D02*
X131049000Y-69848000D01*
X129769000Y-72710000D02*
X129769000Y-70500000D01*
X129129000Y-76401000D02*
X129129000Y-71099000D01*
X128649000Y-75714000D02*
X128649000Y-71786000D01*
X131369000Y-72710000D02*
X131369000Y-69765000D01*
X130529000Y-77454000D02*
X130529000Y-74790000D01*
X129729000Y-76970000D02*
X129729000Y-74790000D01*
X130089000Y-77219000D02*
X130089000Y-74790000D01*
X129409000Y-76695000D02*
X129409000Y-70805000D01*
X130049000Y-72710000D02*
X130049000Y-70306000D01*
X130009000Y-77168000D02*
X130009000Y-74790000D01*
X129209000Y-76491000D02*
X129209000Y-71009000D01*
X130129000Y-77243000D02*
X130129000Y-74790000D01*
X128849000Y-76037000D02*
X128849000Y-71463000D01*
X131489000Y-72710000D02*
X131489000Y-69740000D01*
X129689000Y-72710000D02*
X129689000Y-70561000D01*
X131810000Y-77807000D02*
X131810000Y-69693000D01*
X131610000Y-77780000D02*
X131610000Y-69720000D01*
X130329000Y-72710000D02*
X130329000Y-70144000D01*
X128249000Y-74698000D02*
X128249000Y-72802000D01*
X128329000Y-74979000D02*
X128329000Y-72521000D01*
X131249000Y-77707000D02*
X131249000Y-74790000D01*
X129969000Y-77142000D02*
X129969000Y-74790000D01*
X131449000Y-72710000D02*
X131449000Y-69748000D01*
X130409000Y-72710000D02*
X130409000Y-70103000D01*
X130249000Y-72710000D02*
X130249000Y-70188000D01*
X129089000Y-76354000D02*
X129089000Y-71146000D01*
X129569000Y-76840000D02*
X129569000Y-74790000D01*
X132090000Y-77827000D02*
X132090000Y-69673000D01*
X130409000Y-77397000D02*
X130409000Y-74790000D01*
X131409000Y-77744000D02*
X131409000Y-74790000D01*
X131329000Y-77726000D02*
X131329000Y-74790000D01*
X128929000Y-76150000D02*
X128929000Y-71350000D01*
X131089000Y-77664000D02*
X131089000Y-74790000D01*
X129689000Y-76939000D02*
X129689000Y-74790000D01*
X131529000Y-77767000D02*
X131529000Y-74790000D01*
X131369000Y-77735000D02*
X131369000Y-74790000D01*
X130849000Y-72710000D02*
X130849000Y-69915000D01*
X128209000Y-74518000D02*
X128209000Y-72982000D01*
X131409000Y-72710000D02*
X131409000Y-69756000D01*
X130209000Y-77290000D02*
X130209000Y-74790000D01*
X129969000Y-72710000D02*
X129969000Y-70358000D01*
X130289000Y-72710000D02*
X130289000Y-70166000D01*
X131129000Y-77675000D02*
X131129000Y-74790000D01*
X129449000Y-76733000D02*
X129449000Y-70767000D01*
X128569000Y-75563000D02*
X128569000Y-71937000D01*
X130049000Y-77194000D02*
X130049000Y-74790000D01*
X132130000Y-77829000D02*
X132130000Y-69671000D01*
X130489000Y-77436000D02*
X130489000Y-74790000D01*
X130969000Y-72710000D02*
X130969000Y-69873000D01*
X129889000Y-72710000D02*
X129889000Y-70412000D01*
X128369000Y-75096000D02*
X128369000Y-72404000D01*
X130289000Y-77334000D02*
X130289000Y-74790000D01*
X131930000Y-77818000D02*
X131930000Y-69682000D01*
X130329000Y-77356000D02*
X130329000Y-74790000D01*
X128969000Y-76204000D02*
X128969000Y-71296000D01*
X130649000Y-77507000D02*
X130649000Y-74790000D01*
X129489000Y-72710000D02*
X129489000Y-70731000D01*
X130809000Y-77571000D02*
X130809000Y-74790000D01*
X131289000Y-72710000D02*
X131289000Y-69783000D01*
X131009000Y-77639000D02*
X131009000Y-74790000D01*
X129009000Y-76255000D02*
X129009000Y-71245000D01*
X131529000Y-72710000D02*
X131529000Y-69733000D01*
X131970000Y-77821000D02*
X131970000Y-69679000D01*
X129609000Y-72710000D02*
X129609000Y-70626000D01*
X130449000Y-72710000D02*
X130449000Y-70084000D01*
X130809000Y-72710000D02*
X130809000Y-69929000D01*
X129929000Y-77115000D02*
X129929000Y-74790000D01*
X130609000Y-77490000D02*
X130609000Y-74790000D01*
X131449000Y-77752000D02*
X131449000Y-74790000D01*
X130689000Y-72710000D02*
X130689000Y-69976000D01*
X129729000Y-72710000D02*
X129729000Y-70530000D01*
X130529000Y-72710000D02*
X130529000Y-70046000D01*
X130369000Y-77377000D02*
X130369000Y-74790000D01*
X131329000Y-72710000D02*
X131329000Y-69774000D01*
X129769000Y-77000000D02*
X129769000Y-74790000D01*
X130009000Y-72710000D02*
X130009000Y-70332000D01*
X129369000Y-76657000D02*
X129369000Y-70843000D01*
X131690000Y-77792000D02*
X131690000Y-69708000D01*
X129649000Y-72710000D02*
X129649000Y-70594000D01*
X130889000Y-77600000D02*
X130889000Y-74790000D01*
X128889000Y-76095000D02*
X128889000Y-71405000D01*
X130249000Y-77312000D02*
X130249000Y-74790000D01*
X129809000Y-77030000D02*
X129809000Y-74790000D01*
X131489000Y-77760000D02*
X131489000Y-74790000D01*
X136659698Y-76065000D02*
X135859698Y-76065000D01*
X132010000Y-77824000D02*
X132010000Y-69676000D01*
X131730000Y-77798000D02*
X131730000Y-69702000D01*
X130889000Y-72710000D02*
X130889000Y-69900000D01*
X131089000Y-72710000D02*
X131089000Y-69836000D01*
X128489000Y-75395000D02*
X128489000Y-72105000D01*
X130169000Y-77267000D02*
X130169000Y-74790000D01*
X128409000Y-75203000D02*
X128409000Y-72297000D01*
X129929000Y-72710000D02*
X129929000Y-70385000D01*
X129049000Y-76306000D02*
X129049000Y-71194000D01*
X131129000Y-72710000D02*
X131129000Y-69825000D01*
X128169000Y-74283000D02*
X128169000Y-73217000D01*
X131209000Y-77697000D02*
X131209000Y-74790000D01*
X130609000Y-72710000D02*
X130609000Y-70010000D01*
X136259698Y-76465000D02*
X136259698Y-75665000D01*
X129529000Y-76805000D02*
X129529000Y-74790000D01*
X128769000Y-75916000D02*
X128769000Y-71584000D01*
X129329000Y-76617000D02*
X129329000Y-70883000D01*
X131049000Y-77652000D02*
X131049000Y-74790000D01*
X129529000Y-72710000D02*
X129529000Y-70695000D01*
X129569000Y-72710000D02*
X129569000Y-70660000D01*
X130209000Y-72710000D02*
X130209000Y-70210000D01*
X128609000Y-75640000D02*
X128609000Y-71860000D01*
X129809000Y-72710000D02*
X129809000Y-70470000D01*
X129489000Y-76769000D02*
X129489000Y-74790000D01*
X130849000Y-77585000D02*
X130849000Y-74790000D01*
X131289000Y-77717000D02*
X131289000Y-74790000D01*
X132210000Y-77830000D02*
X132210000Y-69670000D01*
X130769000Y-72710000D02*
X130769000Y-69945000D01*
X130489000Y-72710000D02*
X130489000Y-70064000D01*
X131169000Y-72710000D02*
X131169000Y-69814000D01*
X130569000Y-77472000D02*
X130569000Y-74790000D01*
X131850000Y-77811000D02*
X131850000Y-69689000D01*
X130569000Y-72710000D02*
X130569000Y-70028000D01*
X130369000Y-72710000D02*
X130369000Y-70123000D01*
X129289000Y-76576000D02*
X129289000Y-70924000D01*
X129849000Y-72710000D02*
X129849000Y-70441000D01*
X129169000Y-76447000D02*
X129169000Y-71053000D01*
X131770000Y-77802000D02*
X131770000Y-69698000D01*
X130729000Y-72710000D02*
X130729000Y-69960000D01*
X129889000Y-77088000D02*
X129889000Y-74790000D01*
X130089000Y-72710000D02*
X130089000Y-70281000D01*
X130449000Y-77416000D02*
X130449000Y-74790000D01*
X130729000Y-77540000D02*
X130729000Y-74790000D01*
X136370000Y-73750000D02*
G75*
G03*
X136370000Y-73750000I-4120000J0D01*
G01*
%TO.C,C20*%
X152120000Y-64280000D02*
X149380000Y-64280000D01*
X149380000Y-64280000D02*
X149380000Y-71720000D01*
X152120000Y-71720000D02*
X149380000Y-71720000D01*
X152120000Y-64280000D02*
X152120000Y-71720000D01*
D12*
%TO.C,J1*%
X118200000Y-77400000D02*
X118800000Y-77400000D01*
X105500000Y-77400000D02*
X104600000Y-78300000D01*
X104600000Y-89600000D02*
X104600000Y-88400000D01*
X118200000Y-89600000D02*
X118800000Y-89600000D01*
X104600000Y-78600000D02*
X104400000Y-78600000D01*
X105900000Y-77400000D02*
X105500000Y-77400000D01*
X104600000Y-78300000D02*
X104600000Y-78600000D01*
X118800000Y-77400000D02*
X118800000Y-78900000D01*
X118800000Y-89600000D02*
X118800000Y-88200000D01*
X105200000Y-89600000D02*
X104600000Y-89600000D01*
D11*
%TO.C,C9*%
X139521000Y-55741000D02*
X139521000Y-58179000D01*
X137641000Y-49689000D02*
X137641000Y-59311000D01*
X138841000Y-50279000D02*
X138841000Y-53259000D01*
X139481000Y-55741000D02*
X139481000Y-58216000D01*
X139161000Y-55741000D02*
X139161000Y-58489000D01*
X138721000Y-50202000D02*
X138721000Y-53259000D01*
X138561000Y-50105000D02*
X138561000Y-53259000D01*
X140401000Y-51921000D02*
X140401000Y-53259000D01*
X136600000Y-49455000D02*
X136600000Y-59545000D01*
X139801000Y-55741000D02*
X139801000Y-57892000D01*
X140561000Y-52211000D02*
X140561000Y-53259000D01*
X137921000Y-49793000D02*
X137921000Y-59207000D01*
X139521000Y-50821000D02*
X139521000Y-53259000D01*
X140321000Y-51791000D02*
X140321000Y-53259000D01*
X140601000Y-55741000D02*
X140601000Y-56709000D01*
X140361000Y-55741000D02*
X140361000Y-57145000D01*
X130520354Y-51625000D02*
X131520354Y-51625000D01*
X139801000Y-51108000D02*
X139801000Y-53259000D01*
X140281000Y-55741000D02*
X140281000Y-57270000D01*
X138041000Y-49843000D02*
X138041000Y-59157000D01*
X140081000Y-51446000D02*
X140081000Y-53259000D01*
X137761000Y-49732000D02*
X137761000Y-59268000D01*
X139401000Y-55741000D02*
X139401000Y-58289000D01*
X140361000Y-51855000D02*
X140361000Y-53259000D01*
X138881000Y-50306000D02*
X138881000Y-53259000D01*
X137001000Y-49518000D02*
X137001000Y-59482000D01*
X139921000Y-55741000D02*
X139921000Y-57754000D01*
X137481000Y-49638000D02*
X137481000Y-59362000D01*
X139281000Y-50608000D02*
X139281000Y-53259000D01*
X136480000Y-49442000D02*
X136480000Y-59558000D01*
X138801000Y-55741000D02*
X138801000Y-58747000D01*
X139281000Y-55741000D02*
X139281000Y-58392000D01*
X138681000Y-50177000D02*
X138681000Y-53259000D01*
X137161000Y-49553000D02*
X137161000Y-59447000D01*
X136921000Y-49503000D02*
X136921000Y-59497000D01*
X139881000Y-55741000D02*
X139881000Y-57801000D01*
X138001000Y-49826000D02*
X138001000Y-59174000D01*
X139761000Y-51064000D02*
X139761000Y-53259000D01*
X136640000Y-49460000D02*
X136640000Y-59540000D01*
X138121000Y-49879000D02*
X138121000Y-59121000D01*
X139241000Y-55741000D02*
X139241000Y-58425000D01*
X140201000Y-55741000D02*
X140201000Y-57389000D01*
X139921000Y-51246000D02*
X139921000Y-53259000D01*
X138881000Y-55741000D02*
X138881000Y-58694000D01*
X139561000Y-50860000D02*
X139561000Y-53259000D01*
X138761000Y-50227000D02*
X138761000Y-53259000D01*
X136440000Y-49438000D02*
X136440000Y-59562000D01*
X140121000Y-55741000D02*
X140121000Y-57500000D01*
X137201000Y-49562000D02*
X137201000Y-59438000D01*
X140881000Y-55741000D02*
X140881000Y-56010000D01*
X138441000Y-50038000D02*
X138441000Y-58962000D01*
X140401000Y-55741000D02*
X140401000Y-57079000D01*
X139761000Y-55741000D02*
X139761000Y-57936000D01*
X138961000Y-55741000D02*
X138961000Y-58638000D01*
X138681000Y-55741000D02*
X138681000Y-58823000D01*
X139361000Y-50676000D02*
X139361000Y-53259000D01*
X136240000Y-49425000D02*
X136240000Y-59575000D01*
X139201000Y-55741000D02*
X139201000Y-58457000D01*
X139441000Y-50747000D02*
X139441000Y-53259000D01*
X141081000Y-53901000D02*
X141081000Y-55099000D01*
X137961000Y-49810000D02*
X137961000Y-59190000D01*
X138721000Y-55741000D02*
X138721000Y-58798000D01*
X136881000Y-49496000D02*
X136881000Y-59504000D01*
X138641000Y-50153000D02*
X138641000Y-53259000D01*
X138841000Y-55741000D02*
X138841000Y-58721000D01*
X138161000Y-49897000D02*
X138161000Y-59103000D01*
X139041000Y-50420000D02*
X139041000Y-53259000D01*
X139241000Y-50575000D02*
X139241000Y-53259000D01*
X137881000Y-49777000D02*
X137881000Y-59223000D01*
X140201000Y-51611000D02*
X140201000Y-53259000D01*
X140641000Y-55741000D02*
X140641000Y-56625000D01*
X139961000Y-51294000D02*
X139961000Y-53259000D01*
X136120000Y-49421000D02*
X136120000Y-59579000D01*
X138281000Y-49955000D02*
X138281000Y-59045000D01*
X139081000Y-50450000D02*
X139081000Y-53259000D01*
X140841000Y-55741000D02*
X140841000Y-56130000D01*
X140041000Y-51394000D02*
X140041000Y-53259000D01*
X137801000Y-49746000D02*
X137801000Y-59254000D01*
X139881000Y-51199000D02*
X139881000Y-53259000D01*
X140041000Y-55741000D02*
X140041000Y-57606000D01*
X139041000Y-55741000D02*
X139041000Y-58580000D01*
X140241000Y-51670000D02*
X140241000Y-53259000D01*
X136160000Y-49422000D02*
X136160000Y-59578000D01*
X138921000Y-55741000D02*
X138921000Y-58666000D01*
X139641000Y-50939000D02*
X139641000Y-53259000D01*
X140001000Y-55741000D02*
X140001000Y-57656000D01*
X140241000Y-55741000D02*
X140241000Y-57330000D01*
X137521000Y-49650000D02*
X137521000Y-59350000D01*
X138561000Y-55741000D02*
X138561000Y-58895000D01*
X139721000Y-51022000D02*
X139721000Y-53259000D01*
X136080000Y-49420000D02*
X136080000Y-59580000D01*
X139081000Y-55741000D02*
X139081000Y-58550000D01*
X136040000Y-49420000D02*
X136040000Y-59580000D01*
X140921000Y-53122000D02*
X140921000Y-53259000D01*
X137321000Y-49593000D02*
X137321000Y-59407000D01*
X140721000Y-55741000D02*
X140721000Y-56444000D01*
X131020354Y-51125000D02*
X131020354Y-52125000D01*
X136360000Y-49432000D02*
X136360000Y-59568000D01*
X137441000Y-49626000D02*
X137441000Y-59374000D01*
X137601000Y-49676000D02*
X137601000Y-59324000D01*
X138081000Y-49861000D02*
X138081000Y-59139000D01*
X139001000Y-50390000D02*
X139001000Y-53259000D01*
X138481000Y-50060000D02*
X138481000Y-58940000D01*
X140761000Y-52654000D02*
X140761000Y-53259000D01*
X140641000Y-52375000D02*
X140641000Y-53259000D01*
X140081000Y-55741000D02*
X140081000Y-57554000D01*
X136280000Y-49427000D02*
X136280000Y-59573000D01*
X138601000Y-55741000D02*
X138601000Y-58871000D01*
X139361000Y-55741000D02*
X139361000Y-58324000D01*
X139321000Y-55741000D02*
X139321000Y-58358000D01*
X136320000Y-49430000D02*
X136320000Y-59570000D01*
X139961000Y-55741000D02*
X139961000Y-57706000D01*
X139841000Y-51153000D02*
X139841000Y-53259000D01*
X139681000Y-50980000D02*
X139681000Y-53259000D01*
X137081000Y-49535000D02*
X137081000Y-59465000D01*
X139641000Y-55741000D02*
X139641000Y-58061000D01*
X137241000Y-49572000D02*
X137241000Y-59428000D01*
X140441000Y-51990000D02*
X140441000Y-53259000D01*
X136761000Y-49476000D02*
X136761000Y-59524000D01*
X136961000Y-49510000D02*
X136961000Y-59490000D01*
X140441000Y-55741000D02*
X140441000Y-57010000D01*
X136000000Y-49420000D02*
X136000000Y-59580000D01*
X136520000Y-49446000D02*
X136520000Y-59554000D01*
X138361000Y-49996000D02*
X138361000Y-59004000D01*
X140161000Y-55741000D02*
X140161000Y-57445000D01*
X136801000Y-49482000D02*
X136801000Y-59518000D01*
X138641000Y-55741000D02*
X138641000Y-58847000D01*
X138401000Y-50017000D02*
X138401000Y-58983000D01*
X137401000Y-49615000D02*
X137401000Y-59385000D01*
X137721000Y-49717000D02*
X137721000Y-59283000D01*
X140721000Y-52556000D02*
X140721000Y-53259000D01*
X139561000Y-55741000D02*
X139561000Y-58140000D01*
X137041000Y-49526000D02*
X137041000Y-59474000D01*
X136721000Y-49470000D02*
X136721000Y-59530000D01*
X137361000Y-49603000D02*
X137361000Y-59397000D01*
X140521000Y-52135000D02*
X140521000Y-53259000D01*
X140801000Y-52758000D02*
X140801000Y-53259000D01*
X137841000Y-49762000D02*
X137841000Y-59238000D01*
X138961000Y-50362000D02*
X138961000Y-53259000D01*
X138241000Y-49936000D02*
X138241000Y-59064000D01*
X139121000Y-55741000D02*
X139121000Y-58520000D01*
X138521000Y-55741000D02*
X138521000Y-58917000D01*
X140801000Y-55741000D02*
X140801000Y-56242000D01*
X140321000Y-55741000D02*
X140321000Y-57209000D01*
X139721000Y-55741000D02*
X139721000Y-57978000D01*
X136680000Y-49465000D02*
X136680000Y-59535000D01*
X138321000Y-49975000D02*
X138321000Y-59025000D01*
X139481000Y-50784000D02*
X139481000Y-53259000D01*
X137561000Y-49663000D02*
X137561000Y-59337000D01*
X140761000Y-55741000D02*
X140761000Y-56346000D01*
X136841000Y-49489000D02*
X136841000Y-59511000D01*
X137121000Y-49544000D02*
X137121000Y-59456000D01*
X140881000Y-52990000D02*
X140881000Y-53259000D01*
X140121000Y-51500000D02*
X140121000Y-53259000D01*
X137281000Y-49582000D02*
X137281000Y-59418000D01*
X141001000Y-53438000D02*
X141001000Y-55562000D01*
X139001000Y-55741000D02*
X139001000Y-58610000D01*
X139401000Y-50711000D02*
X139401000Y-53259000D01*
X139161000Y-50511000D02*
X139161000Y-53259000D01*
X141041000Y-53638000D02*
X141041000Y-55362000D01*
X137681000Y-49703000D02*
X137681000Y-59297000D01*
X138201000Y-49916000D02*
X138201000Y-59084000D01*
X140921000Y-55741000D02*
X140921000Y-55878000D01*
X140681000Y-52463000D02*
X140681000Y-53259000D01*
X136400000Y-49435000D02*
X136400000Y-59565000D01*
X140601000Y-52291000D02*
X140601000Y-53259000D01*
X136560000Y-49450000D02*
X136560000Y-59550000D01*
X140561000Y-55741000D02*
X140561000Y-56789000D01*
X138761000Y-55741000D02*
X138761000Y-58773000D01*
X139441000Y-55741000D02*
X139441000Y-58253000D01*
X138601000Y-50129000D02*
X138601000Y-53259000D01*
X136200000Y-49423000D02*
X136200000Y-59577000D01*
X138921000Y-50334000D02*
X138921000Y-53259000D01*
X138521000Y-50083000D02*
X138521000Y-53259000D01*
X140481000Y-52061000D02*
X140481000Y-53259000D01*
X140281000Y-51730000D02*
X140281000Y-53259000D01*
X140001000Y-51344000D02*
X140001000Y-53259000D01*
X139601000Y-50899000D02*
X139601000Y-53259000D01*
X139201000Y-50543000D02*
X139201000Y-53259000D01*
X140481000Y-55741000D02*
X140481000Y-56939000D01*
X140681000Y-55741000D02*
X140681000Y-56537000D01*
X139121000Y-50480000D02*
X139121000Y-53259000D01*
X140841000Y-52870000D02*
X140841000Y-53259000D01*
X139321000Y-50642000D02*
X139321000Y-53259000D01*
X138801000Y-50253000D02*
X138801000Y-53259000D01*
X139841000Y-55741000D02*
X139841000Y-57847000D01*
X140521000Y-55741000D02*
X140521000Y-56865000D01*
X139681000Y-55741000D02*
X139681000Y-58020000D01*
X140161000Y-51555000D02*
X140161000Y-53259000D01*
X139601000Y-55741000D02*
X139601000Y-58101000D01*
X131037460Y-55760000D02*
G75*
G03*
X131037460Y-53240000I4962540J1260000D01*
G01*
%TO.C,C10*%
X132039000Y-106456000D02*
X132039000Y-104491000D01*
X131079000Y-102009000D02*
X131079000Y-101872000D01*
X135640000Y-108318000D02*
X135640000Y-98182000D01*
X135400000Y-108295000D02*
X135400000Y-98205000D01*
X131679000Y-105959000D02*
X131679000Y-104491000D01*
X134759000Y-108178000D02*
X134759000Y-98322000D01*
X131399000Y-102009000D02*
X131399000Y-101041000D01*
X135119000Y-108254000D02*
X135119000Y-98246000D01*
X132439000Y-102009000D02*
X132439000Y-99610000D01*
X132079000Y-106504000D02*
X132079000Y-104491000D01*
X132559000Y-102009000D02*
X132559000Y-99497000D01*
X131959000Y-102009000D02*
X131959000Y-100144000D01*
X131439000Y-102009000D02*
X131439000Y-100961000D01*
X132519000Y-102009000D02*
X132519000Y-99534000D01*
X132639000Y-107074000D02*
X132639000Y-104491000D01*
X134679000Y-108157000D02*
X134679000Y-98343000D01*
X132399000Y-102009000D02*
X132399000Y-99649000D01*
X132879000Y-107270000D02*
X132879000Y-104491000D01*
X133679000Y-107775000D02*
X133679000Y-98725000D01*
X132159000Y-106597000D02*
X132159000Y-104491000D01*
X133039000Y-102009000D02*
X133039000Y-99112000D01*
X135760000Y-108325000D02*
X135760000Y-98175000D01*
X133439000Y-102009000D02*
X133439000Y-98855000D01*
X134519000Y-108112000D02*
X134519000Y-98388000D01*
X133479000Y-107667000D02*
X133479000Y-104491000D01*
X134919000Y-108215000D02*
X134919000Y-98285000D01*
X131519000Y-105689000D02*
X131519000Y-104491000D01*
X135800000Y-108327000D02*
X135800000Y-98173000D01*
X135840000Y-108328000D02*
X135840000Y-98172000D01*
X132919000Y-107300000D02*
X132919000Y-104491000D01*
X132159000Y-102009000D02*
X132159000Y-99903000D01*
X135440000Y-108300000D02*
X135440000Y-98200000D01*
X133319000Y-102009000D02*
X133319000Y-98927000D01*
X133599000Y-107733000D02*
X133599000Y-98767000D01*
X131919000Y-102009000D02*
X131919000Y-100196000D01*
X134719000Y-108168000D02*
X134719000Y-98332000D01*
X130999000Y-104312000D02*
X130999000Y-102188000D01*
X134399000Y-108074000D02*
X134399000Y-98426000D01*
X132359000Y-106811000D02*
X132359000Y-104491000D01*
X132959000Y-102009000D02*
X132959000Y-99170000D01*
X135239000Y-108274000D02*
X135239000Y-98226000D01*
X131279000Y-105194000D02*
X131279000Y-104491000D01*
X134279000Y-108033000D02*
X134279000Y-98467000D01*
X131599000Y-105829000D02*
X131599000Y-104491000D01*
X130959000Y-104112000D02*
X130959000Y-102388000D01*
X133119000Y-107444000D02*
X133119000Y-104491000D01*
X131959000Y-106356000D02*
X131959000Y-104491000D01*
X133519000Y-107690000D02*
X133519000Y-98810000D01*
X131479000Y-102009000D02*
X131479000Y-100885000D01*
X132079000Y-102009000D02*
X132079000Y-99996000D01*
X134479000Y-108100000D02*
X134479000Y-98400000D01*
X132919000Y-102009000D02*
X132919000Y-99200000D01*
X133399000Y-107621000D02*
X133399000Y-104491000D01*
X131879000Y-106250000D02*
X131879000Y-104491000D01*
X131599000Y-102009000D02*
X131599000Y-100671000D01*
X133919000Y-107889000D02*
X133919000Y-98611000D01*
X133959000Y-107907000D02*
X133959000Y-98593000D01*
X135560000Y-108312000D02*
X135560000Y-98188000D01*
X135159000Y-108261000D02*
X135159000Y-98239000D01*
X134159000Y-107988000D02*
X134159000Y-98512000D01*
X134999000Y-108232000D02*
X134999000Y-98268000D01*
X134199000Y-108004000D02*
X134199000Y-98496000D01*
X134119000Y-107973000D02*
X134119000Y-98527000D01*
X131759000Y-102009000D02*
X131759000Y-100420000D01*
X135360000Y-108290000D02*
X135360000Y-98210000D01*
X131199000Y-104992000D02*
X131199000Y-104491000D01*
X131719000Y-106020000D02*
X131719000Y-104491000D01*
X132839000Y-107239000D02*
X132839000Y-104491000D01*
X131159000Y-102009000D02*
X131159000Y-101620000D01*
X135079000Y-108247000D02*
X135079000Y-98253000D01*
X131839000Y-106195000D02*
X131839000Y-104491000D01*
X133319000Y-107573000D02*
X133319000Y-104491000D01*
X132999000Y-102009000D02*
X132999000Y-99140000D01*
X132319000Y-106770000D02*
X132319000Y-104491000D01*
X133719000Y-107795000D02*
X133719000Y-98705000D01*
X133479000Y-102009000D02*
X133479000Y-98833000D01*
X132959000Y-107330000D02*
X132959000Y-104491000D01*
X132799000Y-102009000D02*
X132799000Y-99293000D01*
X131319000Y-105287000D02*
X131319000Y-104491000D01*
X135600000Y-108315000D02*
X135600000Y-98185000D01*
X132719000Y-102009000D02*
X132719000Y-99358000D01*
X134359000Y-108061000D02*
X134359000Y-98439000D01*
X131559000Y-105760000D02*
X131559000Y-104491000D01*
X135320000Y-108285000D02*
X135320000Y-98215000D01*
X133199000Y-107497000D02*
X133199000Y-104491000D01*
X133359000Y-107597000D02*
X133359000Y-104491000D01*
X132679000Y-107108000D02*
X132679000Y-104491000D01*
X133359000Y-102009000D02*
X133359000Y-98903000D01*
X132759000Y-107175000D02*
X132759000Y-104491000D01*
X133559000Y-107712000D02*
X133559000Y-98788000D01*
X133159000Y-102009000D02*
X133159000Y-99029000D01*
X134239000Y-108018000D02*
X134239000Y-98482000D01*
X132119000Y-102009000D02*
X132119000Y-99949000D01*
X135720000Y-108323000D02*
X135720000Y-98177000D01*
X131919000Y-106304000D02*
X131919000Y-104491000D01*
X132199000Y-106642000D02*
X132199000Y-104491000D01*
X133079000Y-107416000D02*
X133079000Y-104491000D01*
X134079000Y-107957000D02*
X134079000Y-98543000D01*
X132559000Y-107003000D02*
X132559000Y-104491000D01*
X132439000Y-106890000D02*
X132439000Y-104491000D01*
X135680000Y-108320000D02*
X135680000Y-98180000D01*
X135279000Y-108280000D02*
X135279000Y-98220000D01*
X133159000Y-107471000D02*
X133159000Y-104491000D01*
X131639000Y-102009000D02*
X131639000Y-100605000D01*
X135880000Y-108329000D02*
X135880000Y-98171000D01*
X132119000Y-106551000D02*
X132119000Y-104491000D01*
X134839000Y-108197000D02*
X134839000Y-98303000D01*
X133079000Y-102009000D02*
X133079000Y-99084000D01*
X135199000Y-108268000D02*
X135199000Y-98232000D01*
X133399000Y-102009000D02*
X133399000Y-98879000D01*
X135960000Y-108330000D02*
X135960000Y-98170000D01*
X133839000Y-107853000D02*
X133839000Y-98647000D01*
X134599000Y-108135000D02*
X134599000Y-98365000D01*
X132479000Y-106929000D02*
X132479000Y-104491000D01*
X132719000Y-107142000D02*
X132719000Y-104491000D01*
X132039000Y-102009000D02*
X132039000Y-100044000D01*
X132479000Y-102009000D02*
X132479000Y-99571000D01*
X133279000Y-102009000D02*
X133279000Y-98952000D01*
X132239000Y-102009000D02*
X132239000Y-99814000D01*
X133239000Y-107523000D02*
X133239000Y-104491000D01*
X132679000Y-102009000D02*
X132679000Y-99392000D01*
X136000000Y-108330000D02*
X136000000Y-98170000D01*
X131159000Y-104880000D02*
X131159000Y-104491000D01*
X134439000Y-108087000D02*
X134439000Y-98413000D01*
X133119000Y-102009000D02*
X133119000Y-99056000D01*
X135920000Y-108330000D02*
X135920000Y-98170000D01*
X133439000Y-107645000D02*
X133439000Y-104491000D01*
X133999000Y-107924000D02*
X133999000Y-98576000D01*
X134319000Y-108047000D02*
X134319000Y-98453000D01*
X133239000Y-102009000D02*
X133239000Y-98977000D01*
X132839000Y-102009000D02*
X132839000Y-99261000D01*
X133039000Y-107388000D02*
X133039000Y-104491000D01*
X133799000Y-107834000D02*
X133799000Y-98666000D01*
X131839000Y-102009000D02*
X131839000Y-100305000D01*
X134639000Y-108147000D02*
X134639000Y-98353000D01*
X131759000Y-106080000D02*
X131759000Y-104491000D01*
X135520000Y-108308000D02*
X135520000Y-98192000D01*
X133199000Y-102009000D02*
X133199000Y-99003000D01*
X140979646Y-106625000D02*
X140979646Y-105625000D01*
X131719000Y-102009000D02*
X131719000Y-100480000D01*
X132599000Y-107039000D02*
X132599000Y-104491000D01*
X132279000Y-106728000D02*
X132279000Y-104491000D01*
X131799000Y-102009000D02*
X131799000Y-100361000D01*
X132519000Y-106966000D02*
X132519000Y-104491000D01*
X132239000Y-106686000D02*
X132239000Y-104491000D01*
X131359000Y-105375000D02*
X131359000Y-104491000D01*
X131399000Y-105459000D02*
X131399000Y-104491000D01*
X132199000Y-102009000D02*
X132199000Y-99858000D01*
X131119000Y-102009000D02*
X131119000Y-101740000D01*
X132799000Y-107207000D02*
X132799000Y-104491000D01*
X132399000Y-106851000D02*
X132399000Y-104491000D01*
X131879000Y-102009000D02*
X131879000Y-100250000D01*
X135039000Y-108240000D02*
X135039000Y-98260000D01*
X132759000Y-102009000D02*
X132759000Y-99325000D01*
X131799000Y-106139000D02*
X131799000Y-104491000D01*
X133279000Y-107548000D02*
X133279000Y-104491000D01*
X141479646Y-106125000D02*
X140479646Y-106125000D01*
X133879000Y-107871000D02*
X133879000Y-98629000D01*
X131119000Y-104760000D02*
X131119000Y-104491000D01*
X131199000Y-102009000D02*
X131199000Y-101508000D01*
X131999000Y-102009000D02*
X131999000Y-100094000D01*
X131239000Y-102009000D02*
X131239000Y-101404000D01*
X131519000Y-102009000D02*
X131519000Y-100811000D01*
X132639000Y-102009000D02*
X132639000Y-99426000D01*
X134879000Y-108206000D02*
X134879000Y-98294000D01*
X134959000Y-108224000D02*
X134959000Y-98276000D01*
X131079000Y-104628000D02*
X131079000Y-104491000D01*
X131359000Y-102009000D02*
X131359000Y-101125000D01*
X131999000Y-106406000D02*
X131999000Y-104491000D01*
X130919000Y-103849000D02*
X130919000Y-102651000D01*
X135480000Y-108304000D02*
X135480000Y-98196000D01*
X131639000Y-105895000D02*
X131639000Y-104491000D01*
X131279000Y-102009000D02*
X131279000Y-101306000D01*
X132599000Y-102009000D02*
X132599000Y-99461000D01*
X132279000Y-102009000D02*
X132279000Y-99772000D01*
X133759000Y-107814000D02*
X133759000Y-98686000D01*
X131439000Y-105539000D02*
X131439000Y-104491000D01*
X132319000Y-102009000D02*
X132319000Y-99730000D01*
X134799000Y-108188000D02*
X134799000Y-98312000D01*
X132879000Y-102009000D02*
X132879000Y-99230000D01*
X134559000Y-108124000D02*
X134559000Y-98376000D01*
X132359000Y-102009000D02*
X132359000Y-99689000D01*
X131479000Y-105615000D02*
X131479000Y-104491000D01*
X133639000Y-107754000D02*
X133639000Y-98746000D01*
X131239000Y-105096000D02*
X131239000Y-104491000D01*
X131679000Y-102009000D02*
X131679000Y-100541000D01*
X134039000Y-107940000D02*
X134039000Y-98560000D01*
X131559000Y-102009000D02*
X131559000Y-100740000D01*
X132999000Y-107360000D02*
X132999000Y-104491000D01*
X131319000Y-102009000D02*
X131319000Y-101213000D01*
X140962540Y-101990000D02*
G75*
G03*
X140962540Y-104510000I-4962540J-1260000D01*
G01*
%TO.C,C27*%
X170534000Y-68744000D02*
X167794000Y-68744000D01*
X167794000Y-61304000D02*
X167794000Y-68744000D01*
X170534000Y-61304000D02*
X170534000Y-68744000D01*
X170534000Y-61304000D02*
X167794000Y-61304000D01*
%TO.C,C28*%
X161380000Y-94642000D02*
X161380000Y-97382000D01*
X161380000Y-97382000D02*
X168820000Y-97382000D01*
X161380000Y-94642000D02*
X168820000Y-94642000D01*
X168820000Y-94642000D02*
X168820000Y-97382000D01*
%TO.C,C29*%
X155619000Y-57801000D02*
X155619000Y-55741000D01*
X156099000Y-58289000D02*
X156099000Y-55741000D01*
X157899000Y-59324000D02*
X157899000Y-49676000D01*
X156379000Y-58520000D02*
X156379000Y-55741000D01*
X156619000Y-53259000D02*
X156619000Y-50306000D01*
X157979000Y-59350000D02*
X157979000Y-49650000D01*
X154899000Y-56709000D02*
X154899000Y-55741000D01*
X156659000Y-53259000D02*
X156659000Y-50279000D01*
X155019000Y-53259000D02*
X155019000Y-52061000D01*
X156139000Y-53259000D02*
X156139000Y-50676000D01*
X156619000Y-58694000D02*
X156619000Y-55741000D01*
X158059000Y-59374000D02*
X158059000Y-49626000D01*
X157779000Y-59283000D02*
X157779000Y-49717000D01*
X156499000Y-58610000D02*
X156499000Y-55741000D01*
X156259000Y-53259000D02*
X156259000Y-50575000D01*
X157619000Y-59223000D02*
X157619000Y-49777000D01*
X155859000Y-53259000D02*
X155859000Y-50939000D01*
X159500000Y-59580000D02*
X159500000Y-49420000D01*
X157259000Y-59064000D02*
X157259000Y-49936000D01*
X157819000Y-59297000D02*
X157819000Y-49703000D01*
X156659000Y-58721000D02*
X156659000Y-55741000D01*
X154579000Y-55878000D02*
X154579000Y-55741000D01*
X157179000Y-59025000D02*
X157179000Y-49975000D01*
X158099000Y-59385000D02*
X158099000Y-49615000D01*
X156019000Y-58216000D02*
X156019000Y-55741000D01*
X155179000Y-53259000D02*
X155179000Y-51791000D01*
X156019000Y-53259000D02*
X156019000Y-50784000D01*
X156699000Y-53259000D02*
X156699000Y-50253000D01*
X154659000Y-53259000D02*
X154659000Y-52870000D01*
X158179000Y-59407000D02*
X158179000Y-49593000D01*
X156299000Y-53259000D02*
X156299000Y-50543000D01*
X156259000Y-58425000D02*
X156259000Y-55741000D01*
X158219000Y-59418000D02*
X158219000Y-49582000D01*
X154779000Y-56444000D02*
X154779000Y-55741000D01*
X154419000Y-55099000D02*
X154419000Y-53901000D01*
X156939000Y-53259000D02*
X156939000Y-50105000D01*
X154459000Y-55362000D02*
X154459000Y-53638000D01*
X156339000Y-53259000D02*
X156339000Y-50511000D01*
X154619000Y-56010000D02*
X154619000Y-55741000D01*
X156579000Y-58666000D02*
X156579000Y-55741000D01*
X156739000Y-58773000D02*
X156739000Y-55741000D01*
X155259000Y-57330000D02*
X155259000Y-55741000D01*
X156139000Y-58324000D02*
X156139000Y-55741000D01*
X158619000Y-59504000D02*
X158619000Y-49496000D01*
X156219000Y-58392000D02*
X156219000Y-55741000D01*
X155379000Y-57500000D02*
X155379000Y-55741000D01*
X154979000Y-56865000D02*
X154979000Y-55741000D01*
X155339000Y-57445000D02*
X155339000Y-55741000D01*
X158139000Y-59397000D02*
X158139000Y-49603000D01*
X157459000Y-59157000D02*
X157459000Y-49843000D01*
X159100000Y-59565000D02*
X159100000Y-49435000D01*
X156419000Y-58550000D02*
X156419000Y-55741000D01*
X157659000Y-59238000D02*
X157659000Y-49762000D01*
X155579000Y-57754000D02*
X155579000Y-55741000D01*
X157059000Y-58962000D02*
X157059000Y-50038000D01*
X156539000Y-58638000D02*
X156539000Y-55741000D01*
X159460000Y-59580000D02*
X159460000Y-49420000D01*
X155939000Y-53259000D02*
X155939000Y-50860000D01*
X154739000Y-53259000D02*
X154739000Y-52654000D01*
X155539000Y-53259000D02*
X155539000Y-51294000D01*
X156499000Y-53259000D02*
X156499000Y-50390000D01*
X156779000Y-58798000D02*
X156779000Y-55741000D01*
X156379000Y-53259000D02*
X156379000Y-50480000D01*
X157099000Y-58983000D02*
X157099000Y-50017000D01*
X155459000Y-57606000D02*
X155459000Y-55741000D01*
X154979000Y-53259000D02*
X154979000Y-52135000D01*
X155619000Y-53259000D02*
X155619000Y-51199000D01*
X159020000Y-59558000D02*
X159020000Y-49442000D01*
X158419000Y-59465000D02*
X158419000Y-49535000D01*
X158379000Y-59456000D02*
X158379000Y-49544000D01*
X158539000Y-59490000D02*
X158539000Y-49510000D01*
X159260000Y-59575000D02*
X159260000Y-49425000D01*
X155219000Y-53259000D02*
X155219000Y-51730000D01*
X157699000Y-59254000D02*
X157699000Y-49746000D01*
X159140000Y-59568000D02*
X159140000Y-49432000D01*
X155859000Y-58061000D02*
X155859000Y-55741000D01*
X155499000Y-57656000D02*
X155499000Y-55741000D01*
X155819000Y-53259000D02*
X155819000Y-50980000D01*
X154739000Y-56346000D02*
X154739000Y-55741000D01*
X155099000Y-53259000D02*
X155099000Y-51921000D01*
X155979000Y-58179000D02*
X155979000Y-55741000D01*
X156099000Y-53259000D02*
X156099000Y-50711000D01*
X158699000Y-59518000D02*
X158699000Y-49482000D01*
X157499000Y-59174000D02*
X157499000Y-49826000D01*
X158259000Y-59428000D02*
X158259000Y-49572000D01*
X158579000Y-59497000D02*
X158579000Y-49503000D01*
X156979000Y-53259000D02*
X156979000Y-50083000D01*
X159220000Y-59573000D02*
X159220000Y-49427000D01*
X156899000Y-53259000D02*
X156899000Y-50129000D01*
X155419000Y-57554000D02*
X155419000Y-55741000D01*
X157339000Y-59103000D02*
X157339000Y-49897000D01*
X157139000Y-59004000D02*
X157139000Y-49996000D01*
X158459000Y-59474000D02*
X158459000Y-49526000D01*
X157939000Y-59337000D02*
X157939000Y-49663000D01*
X159180000Y-59570000D02*
X159180000Y-49430000D01*
X154579000Y-53259000D02*
X154579000Y-53122000D01*
X159340000Y-59578000D02*
X159340000Y-49422000D01*
X158299000Y-59438000D02*
X158299000Y-49562000D01*
X154499000Y-55562000D02*
X154499000Y-53438000D01*
X156059000Y-53259000D02*
X156059000Y-50747000D01*
X156299000Y-58457000D02*
X156299000Y-55741000D01*
X156859000Y-58847000D02*
X156859000Y-55741000D01*
X155659000Y-57847000D02*
X155659000Y-55741000D01*
X156179000Y-53259000D02*
X156179000Y-50642000D01*
X156339000Y-58489000D02*
X156339000Y-55741000D01*
X156939000Y-58895000D02*
X156939000Y-55741000D01*
X155819000Y-58020000D02*
X155819000Y-55741000D01*
X156419000Y-53259000D02*
X156419000Y-50450000D01*
X156819000Y-58823000D02*
X156819000Y-55741000D01*
X155899000Y-58101000D02*
X155899000Y-55741000D01*
X155739000Y-57936000D02*
X155739000Y-55741000D01*
X159420000Y-59580000D02*
X159420000Y-49420000D01*
X155699000Y-57892000D02*
X155699000Y-55741000D01*
X156699000Y-58747000D02*
X156699000Y-55741000D01*
X155419000Y-53259000D02*
X155419000Y-51446000D01*
X155739000Y-53259000D02*
X155739000Y-51064000D01*
X154619000Y-53259000D02*
X154619000Y-52990000D01*
X159060000Y-59562000D02*
X159060000Y-49438000D01*
X155019000Y-56939000D02*
X155019000Y-55741000D01*
X154819000Y-56537000D02*
X154819000Y-55741000D01*
X155539000Y-57706000D02*
X155539000Y-55741000D01*
X164979646Y-57375000D02*
X163979646Y-57375000D01*
X159300000Y-59577000D02*
X159300000Y-49423000D01*
X155779000Y-57978000D02*
X155779000Y-55741000D01*
X154859000Y-53259000D02*
X154859000Y-52375000D01*
X156899000Y-58871000D02*
X156899000Y-55741000D01*
X154659000Y-56130000D02*
X154659000Y-55741000D01*
X155339000Y-53259000D02*
X155339000Y-51555000D01*
X155939000Y-58140000D02*
X155939000Y-55741000D01*
X156859000Y-53259000D02*
X156859000Y-50153000D01*
X155699000Y-53259000D02*
X155699000Y-51108000D01*
X155659000Y-53259000D02*
X155659000Y-51153000D01*
X158019000Y-59362000D02*
X158019000Y-49638000D01*
X155379000Y-53259000D02*
X155379000Y-51500000D01*
X157419000Y-59139000D02*
X157419000Y-49861000D01*
X157739000Y-59268000D02*
X157739000Y-49732000D01*
X154699000Y-53259000D02*
X154699000Y-52758000D01*
X155059000Y-57010000D02*
X155059000Y-55741000D01*
X159380000Y-59579000D02*
X159380000Y-49421000D01*
X158820000Y-59535000D02*
X158820000Y-49465000D01*
X157019000Y-58940000D02*
X157019000Y-50060000D01*
X155259000Y-53259000D02*
X155259000Y-51670000D01*
X164479646Y-57875000D02*
X164479646Y-56875000D01*
X155299000Y-53259000D02*
X155299000Y-51611000D01*
X155139000Y-53259000D02*
X155139000Y-51855000D01*
X155459000Y-53259000D02*
X155459000Y-51394000D01*
X156819000Y-53259000D02*
X156819000Y-50177000D01*
X158860000Y-59540000D02*
X158860000Y-49460000D01*
X157379000Y-59121000D02*
X157379000Y-49879000D01*
X154939000Y-53259000D02*
X154939000Y-52211000D01*
X156579000Y-53259000D02*
X156579000Y-50334000D01*
X155099000Y-57079000D02*
X155099000Y-55741000D01*
X156539000Y-53259000D02*
X156539000Y-50362000D01*
X155979000Y-53259000D02*
X155979000Y-50821000D01*
X156979000Y-58917000D02*
X156979000Y-55741000D01*
X155299000Y-57389000D02*
X155299000Y-55741000D01*
X157859000Y-59311000D02*
X157859000Y-49689000D01*
X157299000Y-59084000D02*
X157299000Y-49916000D01*
X154939000Y-56789000D02*
X154939000Y-55741000D01*
X155899000Y-53259000D02*
X155899000Y-50899000D01*
X155779000Y-53259000D02*
X155779000Y-51022000D01*
X156179000Y-58358000D02*
X156179000Y-55741000D01*
X158940000Y-59550000D02*
X158940000Y-49450000D01*
X156459000Y-58580000D02*
X156459000Y-55741000D01*
X155499000Y-53259000D02*
X155499000Y-51344000D01*
X158739000Y-59524000D02*
X158739000Y-49476000D01*
X155579000Y-53259000D02*
X155579000Y-51246000D01*
X155179000Y-57209000D02*
X155179000Y-55741000D01*
X158900000Y-59545000D02*
X158900000Y-49455000D01*
X158499000Y-59482000D02*
X158499000Y-49518000D01*
X154819000Y-53259000D02*
X154819000Y-52463000D01*
X156459000Y-53259000D02*
X156459000Y-50420000D01*
X157539000Y-59190000D02*
X157539000Y-49810000D01*
X155139000Y-57145000D02*
X155139000Y-55741000D01*
X156779000Y-53259000D02*
X156779000Y-50202000D01*
X158339000Y-59447000D02*
X158339000Y-49553000D01*
X158659000Y-59511000D02*
X158659000Y-49489000D01*
X155219000Y-57270000D02*
X155219000Y-55741000D01*
X154779000Y-53259000D02*
X154779000Y-52556000D01*
X154699000Y-56242000D02*
X154699000Y-55741000D01*
X156739000Y-53259000D02*
X156739000Y-50227000D01*
X156219000Y-53259000D02*
X156219000Y-50608000D01*
X157579000Y-59207000D02*
X157579000Y-49793000D01*
X158779000Y-59530000D02*
X158779000Y-49470000D01*
X158980000Y-59554000D02*
X158980000Y-49446000D01*
X154859000Y-56625000D02*
X154859000Y-55741000D01*
X156059000Y-58253000D02*
X156059000Y-55741000D01*
X154899000Y-53259000D02*
X154899000Y-52291000D01*
X155059000Y-53259000D02*
X155059000Y-51990000D01*
X157219000Y-59045000D02*
X157219000Y-49955000D01*
X164462540Y-53240000D02*
G75*
G03*
X164462540Y-55760000I-4962540J-1260000D01*
G01*
%TO.C,C32*%
X158219000Y-108168000D02*
X158219000Y-98332000D01*
X158139000Y-108147000D02*
X158139000Y-98353000D01*
X155059000Y-102009000D02*
X155059000Y-100740000D01*
X154819000Y-102009000D02*
X154819000Y-101213000D01*
X158299000Y-108188000D02*
X158299000Y-98312000D01*
X155539000Y-102009000D02*
X155539000Y-100044000D01*
X158099000Y-108135000D02*
X158099000Y-98365000D01*
X154979000Y-102009000D02*
X154979000Y-100885000D01*
X156779000Y-102009000D02*
X156779000Y-98952000D01*
X156019000Y-102009000D02*
X156019000Y-99534000D01*
X156659000Y-107471000D02*
X156659000Y-104491000D01*
X159140000Y-108318000D02*
X159140000Y-98182000D01*
X156739000Y-102009000D02*
X156739000Y-98977000D01*
X157819000Y-108047000D02*
X157819000Y-98453000D01*
X155939000Y-102009000D02*
X155939000Y-99610000D01*
X155539000Y-106456000D02*
X155539000Y-104491000D01*
X154579000Y-104628000D02*
X154579000Y-104491000D01*
X155259000Y-102009000D02*
X155259000Y-100420000D01*
X156539000Y-102009000D02*
X156539000Y-99112000D01*
X156019000Y-106966000D02*
X156019000Y-104491000D01*
X156779000Y-107548000D02*
X156779000Y-104491000D01*
X154659000Y-102009000D02*
X154659000Y-101620000D01*
X154939000Y-105539000D02*
X154939000Y-104491000D01*
X155779000Y-106728000D02*
X155779000Y-104491000D01*
X155739000Y-102009000D02*
X155739000Y-99814000D01*
X155419000Y-102009000D02*
X155419000Y-100196000D01*
X155579000Y-102009000D02*
X155579000Y-99996000D01*
X155099000Y-102009000D02*
X155099000Y-100671000D01*
X155659000Y-102009000D02*
X155659000Y-99903000D01*
X156579000Y-102009000D02*
X156579000Y-99084000D01*
X154619000Y-102009000D02*
X154619000Y-101740000D01*
X155859000Y-102009000D02*
X155859000Y-99689000D01*
X155619000Y-106551000D02*
X155619000Y-104491000D01*
X155499000Y-106406000D02*
X155499000Y-104491000D01*
X157179000Y-107775000D02*
X157179000Y-98725000D01*
X158980000Y-108304000D02*
X158980000Y-98196000D01*
X154939000Y-102009000D02*
X154939000Y-100961000D01*
X155939000Y-106890000D02*
X155939000Y-104491000D01*
X154499000Y-104312000D02*
X154499000Y-102188000D01*
X159340000Y-108328000D02*
X159340000Y-98172000D01*
X156059000Y-102009000D02*
X156059000Y-99497000D01*
X156139000Y-107074000D02*
X156139000Y-104491000D01*
X156699000Y-107497000D02*
X156699000Y-104491000D01*
X155179000Y-102009000D02*
X155179000Y-100541000D01*
X156899000Y-102009000D02*
X156899000Y-98879000D01*
X156619000Y-107444000D02*
X156619000Y-104491000D01*
X157339000Y-107853000D02*
X157339000Y-98647000D01*
X155499000Y-102009000D02*
X155499000Y-100094000D01*
X155299000Y-102009000D02*
X155299000Y-100361000D01*
X155219000Y-106020000D02*
X155219000Y-104491000D01*
X155419000Y-106304000D02*
X155419000Y-104491000D01*
X156259000Y-107175000D02*
X156259000Y-104491000D01*
X157739000Y-108018000D02*
X157739000Y-98482000D01*
X155099000Y-105829000D02*
X155099000Y-104491000D01*
X155579000Y-106504000D02*
X155579000Y-104491000D01*
X156499000Y-102009000D02*
X156499000Y-99140000D01*
X156339000Y-102009000D02*
X156339000Y-99261000D01*
X157899000Y-108074000D02*
X157899000Y-98426000D01*
X156899000Y-107621000D02*
X156899000Y-104491000D01*
X154459000Y-104112000D02*
X154459000Y-102388000D01*
X155339000Y-106195000D02*
X155339000Y-104491000D01*
X158739000Y-108274000D02*
X158739000Y-98226000D01*
X154739000Y-102009000D02*
X154739000Y-101404000D01*
X154579000Y-102009000D02*
X154579000Y-101872000D01*
X158579000Y-108247000D02*
X158579000Y-98253000D01*
X155819000Y-102009000D02*
X155819000Y-99730000D01*
X155699000Y-102009000D02*
X155699000Y-99858000D01*
X155339000Y-102009000D02*
X155339000Y-100305000D01*
X154739000Y-105096000D02*
X154739000Y-104491000D01*
X156859000Y-102009000D02*
X156859000Y-98903000D01*
X158779000Y-108280000D02*
X158779000Y-98220000D01*
X159260000Y-108325000D02*
X159260000Y-98175000D01*
X157939000Y-108087000D02*
X157939000Y-98413000D01*
X157459000Y-107907000D02*
X157459000Y-98593000D01*
X158900000Y-108295000D02*
X158900000Y-98205000D01*
X155179000Y-105959000D02*
X155179000Y-104491000D01*
X156379000Y-107270000D02*
X156379000Y-104491000D01*
X156219000Y-102009000D02*
X156219000Y-99358000D01*
X154859000Y-102009000D02*
X154859000Y-101125000D01*
X157099000Y-107733000D02*
X157099000Y-98767000D01*
X154419000Y-103849000D02*
X154419000Y-102651000D01*
X159380000Y-108329000D02*
X159380000Y-98171000D01*
X164979646Y-106125000D02*
X163979646Y-106125000D01*
X159220000Y-108323000D02*
X159220000Y-98177000D01*
X155619000Y-102009000D02*
X155619000Y-99949000D01*
X158179000Y-108157000D02*
X158179000Y-98343000D01*
X156299000Y-107207000D02*
X156299000Y-104491000D01*
X155779000Y-102009000D02*
X155779000Y-99772000D01*
X155739000Y-106686000D02*
X155739000Y-104491000D01*
X154819000Y-105287000D02*
X154819000Y-104491000D01*
X156419000Y-102009000D02*
X156419000Y-99200000D01*
X158419000Y-108215000D02*
X158419000Y-98285000D01*
X154899000Y-105459000D02*
X154899000Y-104491000D01*
X159060000Y-108312000D02*
X159060000Y-98188000D01*
X157499000Y-107924000D02*
X157499000Y-98576000D01*
X155819000Y-106770000D02*
X155819000Y-104491000D01*
X158459000Y-108224000D02*
X158459000Y-98276000D01*
X156459000Y-107330000D02*
X156459000Y-104491000D01*
X156419000Y-107300000D02*
X156419000Y-104491000D01*
X154979000Y-105615000D02*
X154979000Y-104491000D01*
X157139000Y-107754000D02*
X157139000Y-98746000D01*
X155659000Y-106597000D02*
X155659000Y-104491000D01*
X158699000Y-108268000D02*
X158699000Y-98232000D01*
X155979000Y-106929000D02*
X155979000Y-104491000D01*
X154859000Y-105375000D02*
X154859000Y-104491000D01*
X155299000Y-106139000D02*
X155299000Y-104491000D01*
X158820000Y-108285000D02*
X158820000Y-98215000D01*
X157219000Y-107795000D02*
X157219000Y-98705000D01*
X155899000Y-106851000D02*
X155899000Y-104491000D01*
X156099000Y-102009000D02*
X156099000Y-99461000D01*
X158379000Y-108206000D02*
X158379000Y-98294000D01*
X164479646Y-106625000D02*
X164479646Y-105625000D01*
X155379000Y-106250000D02*
X155379000Y-104491000D01*
X158619000Y-108254000D02*
X158619000Y-98246000D01*
X159300000Y-108327000D02*
X159300000Y-98173000D01*
X156819000Y-107573000D02*
X156819000Y-104491000D01*
X157539000Y-107940000D02*
X157539000Y-98560000D01*
X157699000Y-108004000D02*
X157699000Y-98496000D01*
X156099000Y-107039000D02*
X156099000Y-104491000D01*
X155059000Y-105760000D02*
X155059000Y-104491000D01*
X155019000Y-105689000D02*
X155019000Y-104491000D01*
X157619000Y-107973000D02*
X157619000Y-98527000D01*
X156179000Y-107108000D02*
X156179000Y-104491000D01*
X156619000Y-102009000D02*
X156619000Y-99056000D01*
X155259000Y-106080000D02*
X155259000Y-104491000D01*
X158659000Y-108261000D02*
X158659000Y-98239000D01*
X157659000Y-107988000D02*
X157659000Y-98512000D01*
X156339000Y-107239000D02*
X156339000Y-104491000D01*
X154779000Y-102009000D02*
X154779000Y-101306000D01*
X157259000Y-107814000D02*
X157259000Y-98686000D01*
X154699000Y-102009000D02*
X154699000Y-101508000D01*
X157859000Y-108061000D02*
X157859000Y-98439000D01*
X156139000Y-102009000D02*
X156139000Y-99426000D01*
X157579000Y-107957000D02*
X157579000Y-98543000D01*
X155459000Y-102009000D02*
X155459000Y-100144000D01*
X156059000Y-107003000D02*
X156059000Y-104491000D01*
X156539000Y-107388000D02*
X156539000Y-104491000D01*
X156739000Y-107523000D02*
X156739000Y-104491000D01*
X157019000Y-107690000D02*
X157019000Y-98810000D01*
X156859000Y-107597000D02*
X156859000Y-104491000D01*
X155699000Y-106642000D02*
X155699000Y-104491000D01*
X156259000Y-102009000D02*
X156259000Y-99325000D01*
X154619000Y-104760000D02*
X154619000Y-104491000D01*
X155219000Y-102009000D02*
X155219000Y-100480000D01*
X158059000Y-108124000D02*
X158059000Y-98376000D01*
X157299000Y-107834000D02*
X157299000Y-98666000D01*
X156379000Y-102009000D02*
X156379000Y-99230000D01*
X158860000Y-108290000D02*
X158860000Y-98210000D01*
X155859000Y-106811000D02*
X155859000Y-104491000D01*
X156939000Y-107645000D02*
X156939000Y-104491000D01*
X159180000Y-108320000D02*
X159180000Y-98180000D01*
X154699000Y-104992000D02*
X154699000Y-104491000D01*
X158499000Y-108232000D02*
X158499000Y-98268000D01*
X156659000Y-102009000D02*
X156659000Y-99029000D01*
X156939000Y-102009000D02*
X156939000Y-98855000D01*
X154899000Y-102009000D02*
X154899000Y-101041000D01*
X156819000Y-102009000D02*
X156819000Y-98927000D01*
X154779000Y-105194000D02*
X154779000Y-104491000D01*
X155899000Y-102009000D02*
X155899000Y-99649000D01*
X156459000Y-102009000D02*
X156459000Y-99170000D01*
X159100000Y-108315000D02*
X159100000Y-98185000D01*
X158940000Y-108300000D02*
X158940000Y-98200000D01*
X158339000Y-108197000D02*
X158339000Y-98303000D01*
X155459000Y-106356000D02*
X155459000Y-104491000D01*
X157979000Y-108100000D02*
X157979000Y-98400000D01*
X154659000Y-104880000D02*
X154659000Y-104491000D01*
X156219000Y-107142000D02*
X156219000Y-104491000D01*
X155139000Y-102009000D02*
X155139000Y-100605000D01*
X155019000Y-102009000D02*
X155019000Y-100811000D01*
X157059000Y-107712000D02*
X157059000Y-98788000D01*
X157419000Y-107889000D02*
X157419000Y-98611000D01*
X155979000Y-102009000D02*
X155979000Y-99571000D01*
X156299000Y-102009000D02*
X156299000Y-99293000D01*
X159020000Y-108308000D02*
X159020000Y-98192000D01*
X158259000Y-108178000D02*
X158259000Y-98322000D01*
X156579000Y-107416000D02*
X156579000Y-104491000D01*
X155139000Y-105895000D02*
X155139000Y-104491000D01*
X159420000Y-108330000D02*
X159420000Y-98170000D01*
X157779000Y-108033000D02*
X157779000Y-98467000D01*
X158539000Y-108240000D02*
X158539000Y-98260000D01*
X159500000Y-108330000D02*
X159500000Y-98170000D01*
X159460000Y-108330000D02*
X159460000Y-98170000D01*
X156179000Y-102009000D02*
X156179000Y-99392000D01*
X155379000Y-102009000D02*
X155379000Y-100250000D01*
X156979000Y-102009000D02*
X156979000Y-98833000D01*
X156499000Y-107360000D02*
X156499000Y-104491000D01*
X157379000Y-107871000D02*
X157379000Y-98629000D01*
X156699000Y-102009000D02*
X156699000Y-99003000D01*
X158019000Y-108112000D02*
X158019000Y-98388000D01*
X156979000Y-107667000D02*
X156979000Y-104491000D01*
X164462540Y-101990000D02*
G75*
G03*
X164462540Y-104510000I-4962540J-1260000D01*
G01*
%TO.C,R11*%
X165354000Y-64450000D02*
X165354000Y-66110000D01*
X167274000Y-62530000D02*
G75*
G03*
X167274000Y-62530000I-1920000J0D01*
G01*
%TO.C,C18*%
X152120000Y-89720000D02*
X152120000Y-82280000D01*
X149380000Y-89720000D02*
X149380000Y-82280000D01*
X149380000Y-89720000D02*
X152120000Y-89720000D01*
X149380000Y-82280000D02*
X152120000Y-82280000D01*
%TO.C,R1*%
X126000000Y-58170000D02*
X126000000Y-59830000D01*
X127920000Y-56250000D02*
G75*
G03*
X127920000Y-56250000I-1920000J0D01*
G01*
%TO.C,R2*%
X126000000Y-68330000D02*
X126000000Y-66670000D01*
X127920000Y-70250000D02*
G75*
G03*
X127920000Y-70250000I-1920000J0D01*
G01*
%TO.C,R6*%
X150750000Y-76170000D02*
X150750000Y-77830000D01*
X152670000Y-74250000D02*
G75*
G03*
X152670000Y-74250000I-1920000J0D01*
G01*
%TO.C,R10*%
X158080000Y-80500000D02*
X156420000Y-80500000D01*
X161920000Y-80500000D02*
G75*
G03*
X161920000Y-80500000I-1920000J0D01*
G01*
%TO.C,R12*%
X151572000Y-96266000D02*
X153232000Y-96266000D01*
X151572000Y-96266000D02*
G75*
G03*
X151572000Y-96266000I-1920000J0D01*
G01*
%TO.C,C24*%
X170558000Y-75338000D02*
X170558000Y-78078000D01*
X163118000Y-75338000D02*
X170558000Y-75338000D01*
X163118000Y-75338000D02*
X163118000Y-78078000D01*
X163118000Y-78078000D02*
X170558000Y-78078000D01*
%TD*%
M02*
