%TF.GenerationSoftware,KiCad,Pcbnew,(6.0.2-0)*%
%TF.CreationDate,2022-02-22T22:16:16+08:00*%
%TF.ProjectId,TPA3125D2,54504133-3132-4354-9432-2e6b69636164,rev?*%
%TF.SameCoordinates,Original*%
%TF.FileFunction,Soldermask,Top*%
%TF.FilePolarity,Negative*%
%FSLAX46Y46*%
G04 Gerber Fmt 4.6, Leading zero omitted, Abs format (unit mm)*
G04 Created by KiCad (PCBNEW (6.0.2-0)) date 2022-02-22 22:16:16*
%MOMM*%
%LPD*%
G01*
G04 APERTURE LIST*
G04 Aperture macros list*
%AMRoundRect*
0 Rectangle with rounded corners*
0 $1 Rounding radius*
0 $2 $3 $4 $5 $6 $7 $8 $9 X,Y pos of 4 corners*
0 Add a 4 corners polygon primitive as box body*
4,1,4,$2,$3,$4,$5,$6,$7,$8,$9,$2,$3,0*
0 Add four circle primitives for the rounded corners*
1,1,$1+$1,$2,$3*
1,1,$1+$1,$4,$5*
1,1,$1+$1,$6,$7*
1,1,$1+$1,$8,$9*
0 Add four rect primitives between the rounded corners*
20,1,$1+$1,$2,$3,$4,$5,0*
20,1,$1+$1,$4,$5,$6,$7,0*
20,1,$1+$1,$6,$7,$8,$9,0*
20,1,$1+$1,$8,$9,$2,$3,0*%
G04 Aperture macros list end*
%ADD10R,1.600000X1.600000*%
%ADD11C,1.600000*%
%ADD12RoundRect,0.250000X0.620000X-0.620000X0.620000X0.620000X-0.620000X0.620000X-0.620000X-0.620000X0*%
%ADD13C,1.740000*%
%ADD14R,3.500000X3.500000*%
%ADD15RoundRect,0.750000X1.000000X-0.750000X1.000000X0.750000X-1.000000X0.750000X-1.000000X-0.750000X0*%
%ADD16RoundRect,0.875000X0.875000X-0.875000X0.875000X0.875000X-0.875000X0.875000X-0.875000X-0.875000X0*%
%ADD17RoundRect,0.250000X0.620000X0.620000X-0.620000X0.620000X-0.620000X-0.620000X0.620000X-0.620000X0*%
%ADD18RoundRect,0.250000X-0.620000X-0.620000X0.620000X-0.620000X0.620000X0.620000X-0.620000X0.620000X0*%
%ADD19C,2.400000*%
%ADD20O,2.400000X2.400000*%
%ADD21C,2.340000*%
%ADD22R,2.400000X1.600000*%
%ADD23O,2.400000X1.600000*%
%ADD24C,1.200000*%
%ADD25R,2.500000X1.800000*%
%ADD26R,1.800000X2.500000*%
%ADD27R,2.000000X2.000000*%
%ADD28C,2.000000*%
G04 APERTURE END LIST*
D10*
%TO.C,C3*%
X128000000Y-80000000D03*
D11*
X124500000Y-80000000D03*
%TD*%
D10*
%TO.C,C7*%
X132250000Y-84500000D03*
D11*
X132250000Y-88000000D03*
%TD*%
D10*
%TO.C,C8*%
X128000000Y-92500000D03*
D11*
X124500000Y-92500000D03*
%TD*%
%TO.C,C14*%
X145000000Y-62000000D03*
X140000000Y-62000000D03*
%TD*%
%TO.C,C15*%
X145000000Y-94000000D03*
X140000000Y-94000000D03*
%TD*%
%TO.C,C22*%
X155000000Y-76750000D03*
X160000000Y-76750000D03*
%TD*%
D12*
%TO.C,J3*%
X131750000Y-65750000D03*
D13*
X131750000Y-63210000D03*
%TD*%
D14*
%TO.C,J2*%
X113292500Y-96000000D03*
D15*
X113292500Y-102000000D03*
D16*
X117992500Y-99000000D03*
%TD*%
D17*
%TO.C,J4*%
X148750000Y-54750000D03*
D13*
X146210000Y-54750000D03*
%TD*%
D18*
%TO.C,J5*%
X146250000Y-103250000D03*
D13*
X148790000Y-103250000D03*
%TD*%
D19*
%TO.C,L1*%
X157988000Y-69596000D03*
D20*
X157988000Y-64516000D03*
%TD*%
D19*
%TO.C,L2*%
X160528000Y-88392000D03*
D20*
X165608000Y-88392000D03*
%TD*%
D21*
%TO.C,RV1*%
X112000000Y-58000000D03*
X112000000Y-63000000D03*
X112000000Y-68000000D03*
X117000000Y-58000000D03*
X117000000Y-63000000D03*
X117000000Y-68000000D03*
%TD*%
D22*
%TO.C,U1*%
X138750000Y-66500000D03*
D23*
X138750000Y-69040000D03*
X138750000Y-71580000D03*
X138750000Y-74120000D03*
X138750000Y-76660000D03*
X138750000Y-79200000D03*
X138750000Y-81740000D03*
X138750000Y-84280000D03*
X138750000Y-86820000D03*
X138750000Y-89360000D03*
X146370000Y-89360000D03*
X146370000Y-86820000D03*
X146370000Y-84280000D03*
X146370000Y-81740000D03*
X146370000Y-79200000D03*
X146370000Y-76660000D03*
X146370000Y-74120000D03*
X146370000Y-71580000D03*
X146370000Y-69040000D03*
X146370000Y-66500000D03*
%TD*%
D10*
%TO.C,C2*%
X134000000Y-73750000D03*
D11*
X130500000Y-73750000D03*
%TD*%
%TO.C,C20*%
X150750000Y-65500000D03*
X150750000Y-70500000D03*
%TD*%
D24*
%TO.C,J1*%
X111000000Y-78500000D03*
X108500000Y-88500000D03*
X111000000Y-88500000D03*
X116000000Y-83500000D03*
X108500000Y-78500000D03*
D25*
X116000000Y-88500000D03*
X116000000Y-86000000D03*
D26*
X111000000Y-83500000D03*
D25*
X116000000Y-78500000D03*
X116000000Y-81000000D03*
%TD*%
D27*
%TO.C,C9*%
X132250000Y-54500000D03*
D28*
X139750000Y-54500000D03*
%TD*%
D27*
%TO.C,C10*%
X139750000Y-103250000D03*
D28*
X132250000Y-103250000D03*
%TD*%
D11*
%TO.C,C27*%
X169164000Y-62524000D03*
X169164000Y-67524000D03*
%TD*%
%TO.C,C28*%
X162600000Y-96012000D03*
X167600000Y-96012000D03*
%TD*%
D27*
%TO.C,C29*%
X163250000Y-54500000D03*
D28*
X155750000Y-54500000D03*
%TD*%
D27*
%TO.C,C32*%
X163250000Y-103250000D03*
D28*
X155750000Y-103250000D03*
%TD*%
D19*
%TO.C,R11*%
X165354000Y-62530000D03*
D20*
X165354000Y-67610000D03*
%TD*%
D11*
%TO.C,C18*%
X150750000Y-88500000D03*
X150750000Y-83500000D03*
%TD*%
D19*
%TO.C,R1*%
X126000000Y-56250000D03*
D20*
X126000000Y-61330000D03*
%TD*%
D19*
%TO.C,R2*%
X126000000Y-70250000D03*
D20*
X126000000Y-65170000D03*
%TD*%
D19*
%TO.C,R6*%
X150750000Y-74250000D03*
D20*
X150750000Y-79330000D03*
%TD*%
D19*
%TO.C,R10*%
X160000000Y-80500000D03*
D20*
X154920000Y-80500000D03*
%TD*%
D19*
%TO.C,R12*%
X149652000Y-96266000D03*
D20*
X154732000Y-96266000D03*
%TD*%
D11*
%TO.C,C24*%
X164338000Y-76708000D03*
X169338000Y-76708000D03*
%TD*%
M02*
